<?xml version="1.0" encoding="UTF-8" standalone="no"?>
<svg width="120px" height="18px" viewBox="0 0 120 18" version="1.1" xmlns="http://www.w3.org/2000/svg" xmlns:xlink="http://www.w3.org/1999/xlink" xmlns:sketch="http://www.bohemiancoding.com/sketch/ns">
    <!-- Generator: Sketch 3.2 (9964) - http://www.bohemiancoding.com/sketch -->
    <title>logo@2x</title>
    <desc>Created with Sketch.</desc>
    <defs></defs>
    <g id="Page-1" stroke="none" stroke-width="1" fill="none" fill-rule="evenodd" sketch:type="MSPage">
        <g id="Group" sketch:type="MSLayerGroup">
            <path d="M20.0698378,10.3133208 C20.0698378,8.86415094 19.2395676,7.97366038 17.8553514,7.97366038 C16.1747027,7.97366038 15.0077838,9.65071698 15.0077838,11.4524151 C15.0077838,12.9015849 15.8581622,13.7920755 17.2423784,13.7920755 C18.923027,13.7920755 20.0698378,12.1146792 20.0698378,10.3133208 L20.0698378,10.3133208 Z M12.4180541,11.576717 C12.4180541,8.4705283 14.7113514,5.634 17.9344865,5.634 C20.9792432,5.634 22.68,7.55966038 22.68,10.1893585 C22.68,13.2948679 20.3860541,16.1317358 17.1434595,16.1317358 C14.0983784,16.1317358 12.4180541,14.2064151 12.4180541,11.576717 L12.4180541,11.576717 Z" id="Fill-4" fill="#40ABD3" sketch:type="MSShapeGroup"></path>
            <path d="M0,13.2657971 L1.74,11.1429622 C2.64940541,12.3965057 4.36994595,13.2449103 6.18908108,13.2449103 C7.61254054,13.2449103 8.18594595,12.4160664 8.18594595,11.7291206 C8.18594595,9.82941049 1.75978378,10.1931072 1.75978378,6.2521204 C1.75978378,4.0284981 3.67783784,1.86554717 6.92043243,1.86554717 C9.01654054,1.86554717 10.9939459,2.65394345 12.1803243,4.04839035 L10.4202162,6.11022233 C9.43167568,4.93823712 7.83016216,4.39219479 6.48551351,4.39219479 C5.47686486,4.39219479 4.72572973,4.99857695 4.72572973,5.72630186 C4.72572973,7.48477699 11.1716757,7.2623153 11.1716757,11.1635176 C11.1716757,13.6294938 9.23416216,15.7921132 5.97145946,15.7921132 C3.38140541,15.7921132 1.10724324,14.761363 0,13.2657971" id="Fill-1" fill="#40ABD3" sketch:type="MSShapeGroup"></path>
            <path d="M23.4317838,15.8834717 L26.3383784,2.07271698 L28.8496216,2.07271698 L25.9427027,15.8834717 L23.4317838,15.8834717" id="Fill-5" fill="#40ABD3" sketch:type="MSShapeGroup"></path>
            <path d="M36.4420541,10.3133208 C36.4420541,8.86415094 35.6117838,7.97366038 34.2275676,7.97366038 C32.5469189,7.97366038 31.3803243,9.65071698 31.3803243,11.4524151 C31.3803243,12.9015849 32.2303784,13.7920755 33.6145946,13.7920755 C35.2952432,13.7920755 36.4420541,12.1146792 36.4420541,10.3133208 L36.4420541,10.3133208 Z M28.7902703,11.576717 C28.7902703,8.4705283 31.0835676,5.634 34.3067027,5.634 C37.3517838,5.634 39.0522162,7.55966038 39.0522162,10.1893585 C39.0522162,13.2948679 36.7585946,16.1317358 33.5156757,16.1317358 C30.4709189,16.1317358 28.7902703,14.2064151 28.7902703,11.576717 L28.7902703,11.576717 Z" id="Fill-6" fill="#40ABD3" sketch:type="MSShapeGroup"></path>
            <path d="M39.6061622,13.5438113 L41.3461622,11.3692075 C42.2558919,12.6533208 43.9761081,13.5224151 45.7952432,13.5224151 C47.219027,13.5224151 47.7921081,12.6733585 47.7921081,11.9696604 C47.7921081,10.0236226 41.3662703,10.3961887 41.3662703,6.35909434 C41.3662703,4.08124528 43.284,1.86554717 46.5269189,1.86554717 C48.6227027,1.86554717 50.6001081,2.67316981 51.7864865,4.10162264 L50.0267027,6.21373585 C49.0381622,5.01316981 47.4363243,4.45381132 46.0916757,4.45381132 C45.0833514,4.45381132 44.3318919,5.07498113 44.3318919,5.82045283 C44.3318919,7.62181132 50.7778378,7.39392453 50.7778378,11.3902642 C50.7778378,13.9163774 48.8403243,16.1317358 45.5776216,16.1317358 C42.9875676,16.1317358 40.7137297,15.0758491 39.6061622,13.5438113" id="Fill-7" fill="#2974AE" sketch:type="MSShapeGroup"></path>
            <path d="M52.656973,13.9574717 C52.656973,13.8331698 52.6764324,13.5224151 52.7357838,13.2741509 L53.8037838,8.18083019 L52.2217297,8.18083019 L52.7163243,5.88226415 L54.2977297,5.88226415 L54.8714595,3.14932075 L57.3823784,3.14932075 L56.808973,5.88226415 L58.7468108,5.88226415 L58.2525405,8.18083019 L56.315027,8.18083019 L55.3851892,12.5704528 C55.3657297,12.6947547 55.3657297,12.7983396 55.3657297,12.9223019 C55.3657297,13.4606038 55.6621622,13.7920755 56.2949189,13.7920755 C56.5521081,13.7920755 56.8683243,13.6888302 56.987027,13.584566 L57.0661622,15.6970189 C56.7100541,15.966 56.1171892,16.1317358 55.5042162,16.1317358 C53.8037838,16.1317358 52.656973,15.4484151 52.656973,13.9574717" id="Fill-8" fill="#2974AE" sketch:type="MSShapeGroup"></path>
            <path d="M66.3596757,10.3133208 C66.3596757,8.86415094 65.5290811,7.97366038 64.1451892,7.97366038 C62.4642162,7.97366038 61.2979459,9.65071698 61.2979459,11.4524151 C61.2979459,12.9015849 62.148,13.7920755 63.5322162,13.7920755 C65.2125405,13.7920755 66.3596757,12.1146792 66.3596757,10.3133208 L66.3596757,10.3133208 Z M58.7075676,11.576717 C58.7075676,8.4705283 61.0011892,5.634 64.2236757,5.634 C67.2690811,5.634 68.9691892,7.55966038 68.9691892,10.1893585 C68.9691892,13.2948679 66.6762162,16.1317358 63.4332973,16.1317358 C60.3878919,16.1317358 58.7075676,14.2060755 58.7075676,11.576717 L58.7075676,11.576717 Z" id="Fill-9" fill="#2974AE" sketch:type="MSShapeGroup"></path>
            <path d="M70.0968649,11.576717 C70.0968649,8.28441509 72.528973,5.634 75.6535135,5.634 C77.6108108,5.634 78.8763243,6.46233962 79.5288649,7.60109434 L77.6503784,9.11275472 C77.255027,8.40871698 76.5227027,7.97366038 75.6535135,7.97366038 C73.8538378,7.97366038 72.6476757,9.5685283 72.6476757,11.4313585 C72.6476757,12.9430189 73.715027,13.7920755 75.0402162,13.7920755 C75.851027,13.7920755 76.5625946,13.3780755 77.0370811,12.7983396 L78.4011892,14.5375472 C77.6896216,15.3451698 76.4636757,16.1317358 74.7833514,16.1317358 C71.9361081,16.1317358 70.0968649,14.3096604 70.0968649,11.576717" id="Fill-10" fill="#2974AE" sketch:type="MSShapeGroup"></path>
            <path d="M85.8758919,15.8834717 L84.1157838,11.9696604 L82.632973,13.3159245 L82.0994595,15.8834717 L79.5882162,15.8834717 L82.4944865,2.07271698 L85.0060541,2.07271698 L83.2858378,10.1683019 L87.7345946,5.88226415 L90.9181622,5.88226415 L86.1726486,10.4172453 L88.9206486,15.8834717 L85.8758919,15.8834717" id="Fill-11" fill="#2974AE" sketch:type="MSShapeGroup"></path>
            <path d="M89.8508108,14.3303774 L91.2548108,12.4872453 C91.8282162,13.1916226 93.2121081,14.060717 94.596,14.060717 C95.4463784,14.060717 95.9802162,13.584566 95.9802162,13.0258868 C95.9802162,11.6799623 91.1163243,12.011434 91.1163243,9.00883019 C91.1163243,7.26962264 92.5005405,5.634 95.051027,5.634 C96.6723243,5.634 98.195027,6.27588679 99.1041081,7.24924528 L97.7993514,9.00883019 C97.3446486,8.38766038 96.1582703,7.70433962 94.9916757,7.70433962 C94.1020541,7.70433962 93.6074595,8.11867925 93.6074595,8.63660377 C93.6074595,9.85822642 98.4716757,9.58856604 98.4716757,12.6322642 C98.4716757,14.5375472 96.9496216,16.1317358 94.3394595,16.1317358 C92.5991351,16.1317358 90.9181622,15.510566 89.8508108,14.3303774" id="Fill-12" fill="#2974AE" sketch:type="MSShapeGroup"></path>
            <path id="Fill-13" fill="#2974AE" sketch:type="MSShapeGroup" d="M113.663676,2.11415094 C113.66627,2.11550943 113.676,2.12128302 113.678595,2.12264151 L113.763892,2.16543396 C113.778811,2.17392453 113.808,2.178 113.821946,2.17528302 L113.860541,2.23879245 C113.881297,2.26562264 113.881297,2.26562264 114.069081,2.33015094 L114.076216,2.33015094 L114.081081,2.33015094 C114.087568,2.33015094 114.094378,2.33015094 114.098919,2.32879245 C114.118703,2.32573585 114.135892,2.31316981 114.145297,2.29415094 C114.155351,2.27377358 114.159243,2.26154717 114.151784,2.24150943 L114.210811,2.24150943 L114.219892,2.24150943 C114.244216,2.23743396 114.270162,2.2170566 114.277622,2.19226415 C114.286703,2.16475472 114.272757,2.124 114.250378,2.10532075 C114.24227,2.09954717 114.240324,2.09750943 114.17027,2.06116981 C114.179351,2.03230189 114.166378,2.01090566 114.119351,1.92871698 C114.116108,1.92464151 114.111892,1.91988679 114.107351,1.91615094 C114.086919,1.89645283 114.08173,1.89373585 113.993189,1.86520755 C113.987676,1.86384906 113.981514,1.86249057 113.975351,1.86249057 C113.970162,1.86249057 113.955892,1.86249057 113.950703,1.86316981 L113.863784,1.88218868 C113.855676,1.88422642 113.847892,1.88864151 113.840757,1.8930566 L113.809297,1.91037736 C113.806054,1.90833962 113.802811,1.90698113 113.79827,1.90562264 C113.790162,1.90324528 113.76973,1.89916981 113.760324,1.90120755 C113.740865,1.90324528 113.727243,1.91207547 113.717189,1.92124528 L113.621189,1.92124528 C113.596216,1.92124528 113.569297,1.93822642 113.55827,1.96098113 C113.553081,1.97049057 113.550162,1.98135849 113.550162,1.99188679 C113.550162,2.03739623 113.563459,2.04588679 113.663676,2.11415094"></path>
            <path d="M117.562378,13.1984151 L117.427135,13.2846792 C117.425838,13.2853585 117.425514,13.2860377 117.424216,13.2873962 L117.566919,13.0503396 C117.582486,13.0598491 117.600649,13.062566 117.615243,13.0659623 C117.620432,13.0676604 117.62627,13.0676604 117.632432,13.0676604 L117.63373,13.0676604 L117.643459,13.0676604 C117.654811,13.0659623 117.661622,13.065283 117.66973,13.0584906 C117.639568,13.098566 117.604216,13.1444151 117.562378,13.1984151 L117.562378,13.1984151 Z M114.308432,6.44739623 L114.452757,6.42464151 C114.459243,6.42396226 114.464432,6.42192453 114.470919,6.41920755 L114.484865,6.41241509 C114.491676,6.40969811 114.496541,6.40562264 114.501405,6.40188679 L114.625622,6.28845283 L114.653838,6.25516981 C114.671676,6.23309434 114.689838,6.21169811 114.709946,6.19233962 C114.728432,6.174 114.734919,6.14716981 114.727135,6.12101887 L114.674919,5.95528302 L114.686595,5.91962264 L114.745297,5.8934717 L114.765405,5.8934717 C114.773514,5.8934717 114.781946,5.89211321 114.789081,5.88939623 C114.790378,5.88939623 114.805622,5.88260377 114.806919,5.88192453 L114.880216,5.84422642 C114.900324,5.83437736 114.913622,5.814 114.916216,5.79158491 L114.930486,5.66660377 L114.939243,5.65030189 L115.124757,5.67781132 C115.138054,5.67781132 115.152,5.67441509 115.162054,5.66660377 L115.254162,5.60343396 L115.272973,5.60343396 C115.267784,5.61022642 115.262919,5.61701887 115.256432,5.62449057 C115.248324,5.63467925 115.246378,5.634 115.244432,5.64656604 C115.242486,5.65267925 115.236649,5.67 115.243135,5.71279245 C115.249946,5.73724528 115.254811,5.76271698 115.260324,5.78615094 C115.261622,5.79226415 115.263568,5.79769811 115.265838,5.80313208 C115.271676,5.81535849 115.277838,5.8245283 115.285297,5.83233962 C115.28173,5.84490566 115.280432,5.86018868 115.283027,5.88192453 L115.292108,5.92132075 C115.301189,5.9654717 115.311568,6.00928302 115.321297,6.05581132 C115.333946,6.11320755 115.378703,6.12441509 115.397189,6.12916981 C115.408216,6.13222642 115.418919,6.13222642 115.429946,6.12916981 C115.432541,6.12849057 115.444216,6.12577358 115.446162,6.12441509 L115.539243,6.08637736 C115.573622,6.07483019 115.596,6.04222642 115.596,6.00554717 C115.596,5.99128302 115.596,5.99128302 115.549622,5.84083019 C115.540541,5.81230189 115.521081,5.79226415 115.493189,5.78139623 C115.498378,5.76407547 115.504216,5.74369811 115.510378,5.71958491 C115.511027,5.71686792 115.511027,5.71415094 115.512324,5.71143396 L115.629405,5.83301887 C115.633297,5.83743396 115.645946,5.84626415 115.651459,5.84966038 L115.895676,5.99128302 L115.919027,6.00928302 L115.941405,6.06566038 L115.782811,6.03815094 C115.769189,6.03611321 115.735784,6.04901887 115.723459,6.05513208 C115.696865,6.06735849 115.681946,6.09554717 115.684865,6.12577358 C115.688108,6.14818868 115.691351,6.16415094 115.696865,6.19471698 C115.698811,6.20592453 115.704,6.21713208 115.710486,6.2249434 C115.756865,6.28573585 115.831135,6.33396226 115.896324,6.37709434 C115.903135,6.38116981 115.908973,6.38558491 115.915135,6.38932075 L115.911568,6.38932075 C115.869081,6.39611321 115.840216,6.43109434 115.839568,6.48 C115.832757,6.44875472 115.827568,6.41988679 115.822378,6.39135849 C115.819784,6.37573585 115.811027,6.36181132 115.799676,6.35162264 L115.745514,6.30713208 L115.636541,6.24260377 C115.621946,6.23377358 115.606378,6.23003774 115.589514,6.23003774 C115.58173,6.23003774 115.563892,6.23309434 115.557405,6.23581132 L115.458162,6.27079245 L114.856541,6.30849057 C114.852,6.30916981 114.839027,6.31188679 114.834486,6.31392453 L114.442703,6.46369811 L114.298378,6.46369811 C114.30227,6.45826415 114.304541,6.45283019 114.308432,6.44739623 L114.308432,6.44739623 Z M116.904,6.1994717 C116.902703,6.18996226 116.898811,6.18045283 116.893297,6.17264151 L116.879351,6.15362264 C116.886811,6.16279245 116.896541,6.17264151 116.904,6.18181132 C116.919568,6.1994717 116.934811,6.21713208 116.939676,6.22018868 L117.008108,6.36792453 C116.972108,6.36520755 116.933514,6.36249057 116.897838,6.36113208 L116.864108,6.35875472 L116.893297,6.33022642 C116.906595,6.31732075 116.912757,6.29932075 116.912757,6.28030189 C116.912757,6.24396226 116.909189,6.22358491 116.904,6.1994717 L116.904,6.1994717 Z M116.923459,5.47132075 C116.932216,5.46045283 116.938703,5.44788679 116.941622,5.43396226 C116.945838,5.42173585 116.946486,5.40475472 116.946486,5.39049057 L116.952973,5.29845283 C116.956865,5.30490566 116.963351,5.31135849 116.970162,5.31849057 C117.106054,5.44720755 117.106054,5.44720755 117.139784,5.44720755 C117.152432,5.44720755 117.161514,5.44584906 117.171568,5.43939623 C117.183243,5.43396226 117.192649,5.42615094 117.200108,5.41596226 C117.213405,5.39592453 117.22573,5.37860377 117.236108,5.36230189 C117.241297,5.36773585 117.247135,5.37316981 117.25427,5.37860377 L117.467676,5.5334717 L117.558162,5.60615094 L117.461514,5.62109434 C117.370054,5.55486792 117.364865,5.55181132 117.338919,5.55181132 C117.331135,5.55181132 117.318486,5.55486792 117.312324,5.55758491 C117.268216,5.57388679 117.217946,5.59358491 117.168,5.61362264 C117.125514,5.63060377 117.083027,5.64656604 117.045081,5.66150943 L117.002919,5.65879245 L116.924108,5.56743396 C116.922162,5.56403774 116.920865,5.56064151 116.919568,5.55622642 C116.924757,5.54569811 116.927676,5.53075472 116.928324,5.51309434 L116.923459,5.47132075 L116.923459,5.47132075 Z M115.277838,4.16377358 L115.303784,4.15562264 C115.332,4.14611321 115.351459,4.11792453 115.350162,4.08701887 L115.342378,3.93554717 L115.367027,3.87679245 L115.400757,3.71615094 C115.402054,3.70969811 115.402054,3.70392453 115.402054,3.6974717 L115.518162,3.75011321 C115.531784,3.75554717 115.546054,3.75656604 115.560324,3.75283019 C115.572324,3.79732075 115.588216,3.82415094 115.60573,3.85403774 C115.608973,3.86184906 115.614811,3.86728302 115.620649,3.87271698 C115.627135,3.87815094 115.634595,3.88358491 115.642054,3.888 C115.637838,3.90226415 115.637189,3.91788679 115.642054,3.93181132 L115.690703,4.07343396 C115.641081,4.05950943 115.57427,4.07343396 115.521081,4.08701887 C115.507135,4.09177358 115.491892,4.09584906 115.478919,4.09822642 C115.475027,4.09890566 115.467243,4.1009434 115.463351,4.10298113 L115.301189,4.1685283 C115.294703,4.17124528 115.289838,4.17464151 115.284324,4.17871698 L115.251568,4.17328302 C115.260973,4.16988679 115.26973,4.16649057 115.277838,4.16377358 L115.277838,4.16377358 Z M115.84573,6.51871698 C115.853514,6.54350943 115.865189,6.57033962 115.877189,6.59649057 C115.883676,6.61075472 115.890811,6.62535849 115.899243,6.64607547 C115.922595,6.68886792 115.957946,6.69701887 115.968,6.6990566 L115.98227,6.63215094 L115.969297,6.6990566 C115.977081,6.70075472 115.984865,6.70075472 115.992,6.69939623 C116.032541,6.69362264 116.038703,6.68275472 116.105838,6.57543396 C116.10973,6.56898113 116.113622,6.56116981 116.114919,6.55403774 C116.117838,6.54283019 116.119784,6.52584906 116.118486,6.51566038 C116.115892,6.49867925 116.112324,6.48543396 116.104541,6.47422642 C116.134378,6.46233962 116.154162,6.43245283 116.155784,6.39339623 L116.155784,6.27690566 C116.173297,6.27249057 116.188216,6.25890566 116.196,6.24124528 L116.257946,6.10777358 C116.266703,6.08909434 116.266703,6.06667925 116.257946,6.048 L116.241405,6.01335849 L116.251135,6.01335849 C116.266703,6.01335849 116.280649,6.00792453 116.291676,5.99841509 L116.310486,6.03475472 C116.314703,6.04222642 116.31827,6.04867925 116.324108,6.05377358 C116.329946,6.05920755 116.335459,6.06362264 116.346486,6.07279245 C116.356865,6.08060377 116.368541,6.08637736 116.381514,6.08841509 L116.460973,6.20150943 C116.470054,6.21509434 116.484324,6.22426415 116.499892,6.22766038 C116.507351,6.23003774 116.515135,6.23139623 116.522595,6.23241509 C116.523243,6.23445283 116.524541,6.23784906 116.526162,6.23988679 C116.54173,6.26807547 116.559243,6.30339623 116.576108,6.33566038 L116.601405,6.38286792 C116.606595,6.39339623 116.619568,6.40562264 116.629622,6.41241509 L116.644865,6.42192453 C116.656216,6.43007547 116.668541,6.43381132 116.682162,6.43381132 L116.741838,6.43381132 C116.740541,6.44196226 116.741189,6.4514717 116.741838,6.46064151 C116.74573,6.47626415 116.74573,6.47626415 116.785622,6.55403774 C116.809297,6.59309434 116.809297,6.59309434 117.079135,6.6494717 L117.08173,6.6494717 L117.087892,6.6494717 C117.165405,6.64166038 117.162811,6.58154717 117.155027,6.46437736 L117.177405,6.48679245 C117.193946,6.50241509 117.215351,6.51022642 117.23773,6.50377358 L117.368757,6.46913208 C117.377838,6.46709434 117.385297,6.46369811 117.393081,6.45758491 L117.402162,6.46233962 C117.393081,6.47354717 117.386595,6.48679245 117.384324,6.49732075 C117.379135,6.52958491 117.391135,6.56592453 117.41773,6.59173585 C117.424216,6.59784906 117.424216,6.59784906 117.523135,6.65762264 C117.527676,6.66033962 117.533838,6.6630566 117.538703,6.66441509 L117.545838,6.66645283 C117.559459,6.67018868 117.583135,6.66577358 117.596757,6.66033962 C117.606811,6.65592453 117.615892,6.64811321 117.622378,6.64030189 L117.655784,6.59581132 C117.663568,6.624 117.670378,6.6525283 117.677838,6.68071698 L117.666162,6.9554717 L117.495568,6.90011321 C117.467676,6.89230189 117.438486,6.90283019 117.422919,6.92728302 L117.376541,6.99996226 L117.129081,6.90011321 C117.121622,6.89773585 117.112541,6.89433962 117.104757,6.89637736 C117.065514,6.89773585 117.031459,6.89773585 117.000324,6.89773585 L116.980541,6.86479245 C116.970162,6.84781132 116.95427,6.83626415 116.935459,6.83286792 C116.851135,6.81962264 116.790486,6.81962264 116.72627,6.81962264 C116.718811,6.81962264 116.710054,6.82098113 116.702919,6.82369811 C116.699027,6.8250566 116.686378,6.83083019 116.683135,6.83286792 L116.619568,6.87430189 C116.602703,6.88449057 116.592324,6.90011321 116.589081,6.91981132 L116.568,7.04173585 L116.284216,6.87056604 C116.280649,6.86920755 116.263135,6.86275472 116.260541,6.86139623 L115.954054,6.78430189 L115.856108,6.74728302 C115.863243,6.73539623 115.867135,6.72113208 115.866486,6.70618868 C115.862595,6.63758491 115.854162,6.57543396 115.84573,6.51871698 L115.84573,6.51871698 Z M118.474703,9.07641509 L118.470811,9.24622642 C118.463676,9.23128302 118.451351,9.22041509 118.437405,9.21498113 C118.434811,9.21362264 118.432865,9.2129434 118.431568,9.21226415 L118.400432,8.946 L118.397838,8.928 C118.397189,8.92664151 118.392649,8.9130566 118.392,8.91169811 L118.374162,8.83154717 C118.410486,8.91713208 118.444865,9.00135849 118.474703,9.07641509 L118.474703,9.07641509 Z M119.195676,8.27524528 L119.100973,7.90743396 C119.106486,7.90607547 119.112,7.90335849 119.117514,7.90064151 C119.140865,7.88739623 119.153514,7.85988679 119.149622,7.83169811 C118.904432,6.01607547 118.066703,4.32169811 116.789514,3.0569434 C116.409081,2.69116981 115.994919,2.36343396 115.560324,2.08392453 C115.556108,2.08120755 115.552865,2.07781132 115.549622,2.07543396 L115.507135,2.04996226 C115.506811,2.04928302 115.505514,2.04860377 115.504865,2.04792453 C115.452649,2.01532075 115.400757,1.98135849 115.348865,1.95181132 C115.342378,1.94739623 115.335892,1.94501887 115.32973,1.94366038 C115.319351,1.93754717 115.307676,1.93007547 115.296,1.92328302 C115.271676,1.90833962 115.248324,1.89373585 115.241838,1.88966038 C115.240541,1.88966038 115.239243,1.88864151 115.237946,1.88796226 L115.211676,1.87233962 C115.20973,1.87132075 115.207459,1.86928302 115.204865,1.86860377 C115.191892,1.86079245 115.179568,1.854 115.167568,1.84754717 L115.155568,1.84381132 C115.152649,1.83973585 115.142919,1.83362264 115.139351,1.83192453 C115.130919,1.82649057 115.116973,1.82343396 115.106919,1.82207547 C115.102054,1.82003774 115.097838,1.81833962 115.094595,1.81630189 L115.050811,1.7925283 C115.045297,1.78981132 115.039784,1.78777358 115.033946,1.78709434 C115.029081,1.7850566 115.024541,1.78437736 115.019676,1.78437736 L115.019027,1.78437736 L114.993405,1.77249057 C114.990486,1.77113208 114.987243,1.76977358 114.983351,1.76841509 C114.979459,1.7670566 114.973622,1.76569811 114.96973,1.76501887 C114.93827,1.76026415 114.912324,1.77758491 114.901622,1.80577358 C114.889622,1.83430189 114.898703,1.86724528 114.921405,1.88626415 C114.939243,1.90188679 114.960324,1.91343396 114.980432,1.92464151 L114.996649,1.93313208 C115.008649,1.94230189 115.008649,1.94230189 115.181514,2.03671698 C115.192541,2.04283019 115.191892,2.04350943 115.261622,2.06966038 L115.26227,2.07033962 C115.267784,2.07169811 115.272973,2.07271698 115.277838,2.07271698 C115.283027,2.07543396 115.287243,2.07781132 115.292108,2.08120755 C115.297297,2.08528302 115.311568,2.0910566 115.319351,2.09309434 C115.320649,2.09377358 115.321946,2.09377358 115.321946,2.09377358 L115.434486,2.16339623 C115.436432,2.16883019 115.440324,2.17392453 115.444216,2.17935849 C115.446811,2.18207547 115.452973,2.18954717 115.456216,2.19158491 L115.486703,2.2170566 C115.544757,2.26426415 115.614162,2.32098113 115.669297,2.37362264 C115.669297,2.37362264 115.671243,2.37498113 115.672541,2.37566038 C115.665081,2.38313208 115.659243,2.39230189 115.655351,2.40181132 C115.644649,2.42864151 115.652108,2.4585283 115.671892,2.47754717 L115.698811,2.50301887 C115.690054,2.4989434 115.681297,2.49588679 115.670595,2.49079245 L115.534054,2.38618868 C115.531135,2.38381132 115.527892,2.38177358 115.524973,2.3790566 C115.520108,2.36275472 115.499676,2.33592453 115.426054,2.24286792 L115.429297,2.232 C115.431892,2.22418868 115.432541,2.21433962 115.431892,2.20584906 C115.429946,2.18750943 115.410811,2.16067925 115.396541,2.14845283 C115.378703,2.13350943 115.378703,2.13350943 115.245081,2.07033962 C115.220757,2.06286792 115.187027,2.06966038 115.170486,2.08766038 C115.145514,2.08528302 115.127351,2.09377358 115.113405,2.10939623 C115.091351,2.13215094 115.088757,2.16883019 115.106919,2.19566038 C115.144865,2.25373585 115.193189,2.29686792 115.239243,2.34 C115.260324,2.35867925 115.28173,2.37769811 115.299892,2.39739623 C115.314162,2.41267925 115.323892,2.42083019 115.34627,2.43 C115.352757,2.46871698 115.378703,2.49962264 115.396541,2.52203774 C115.403351,2.52984906 115.410811,2.53833962 115.420216,2.5529434 C115.437405,2.57569811 115.437405,2.57569811 115.709514,2.72445283 C115.716973,2.72750943 115.735784,2.73090566 115.744216,2.73090566 C115.752324,2.73090566 115.761405,2.72818868 115.769838,2.72445283 L115.796757,2.71188679 C115.80227,2.71596226 115.80973,2.72071698 115.819784,2.72683019 C115.808432,2.74075472 115.80227,2.75909434 115.803568,2.7794717 L115.805189,2.8049434 L115.678378,2.73362264 C115.650811,2.71867925 115.61773,2.72445283 115.597297,2.74992453 C115.586919,2.76249057 115.58173,2.77879245 115.582378,2.79475472 C115.555459,2.78184906 115.527892,2.76996226 115.50227,2.75773585 C115.468541,2.74313208 115.436432,2.72818868 115.402703,2.71120755 C115.398811,2.70984906 115.386162,2.70509434 115.381297,2.70373585 L115.236649,2.67826415 C115.227243,2.67690566 115.208108,2.67996226 115.197081,2.68369811 C115.192541,2.6850566 115.187027,2.68777358 115.183135,2.69049057 L115.102054,2.66501887 L115.009946,2.61135849 C115.006378,2.60966038 114.988541,2.60354717 114.984649,2.60286792 L114.857838,2.57841509 C114.853297,2.57773585 114.844541,2.57569811 114.839027,2.57569811 L114.749838,2.57569811 C114.737838,2.57569811 114.718703,2.5845283 114.708973,2.59132075 C114.696,2.59845283 114.687243,2.61067925 114.682703,2.62460377 L114.668108,2.66366038 L114.604541,2.67928302 C114.589622,2.68233962 114.572108,2.69830189 114.562378,2.71188679 C114.557189,2.72003774 114.553297,2.72954717 114.551351,2.74007547 L114.528649,2.78049057 C114.519892,2.79033962 114.513405,2.80290566 114.510811,2.81649057 L114.478703,2.86166038 C114.472216,2.87049057 114.46573,2.88984906 114.463135,2.90139623 C114.461838,2.90988679 114.461838,2.91837736 114.463135,2.92686792 L114.470919,2.96728302 L114.446595,3.23354717 C114.445946,3.23830189 114.447243,3.24713208 114.448541,3.25596226 C114.442703,3.25935849 114.437514,3.26445283 114.432973,3.27022642 L114.290595,3.45328302 C114.272757,3.47637736 114.271459,3.51 114.288324,3.53411321 L114.484865,3.84113208 L114.513405,3.9090566 C114.517297,3.91924528 114.523459,3.92773585 114.531568,3.93486792 C114.577622,3.97562264 114.645081,3.98581132 114.699243,3.99566038 C114.706378,3.99566038 114.713514,3.99667925 114.720649,3.99803774 L114.707676,4.11249057 C114.705081,4.13150943 114.709946,4.1505283 114.723243,4.16513208 L114.781946,4.23679245 C114.785189,4.24460377 114.787784,4.25343396 114.791351,4.26090566 L114.688541,4.29724528 C114.681081,4.30064151 114.671676,4.30539623 114.665514,4.31218868 C114.662595,4.31490566 114.653838,4.32407547 114.651243,4.3274717 L114.603243,4.39098113 C114.588973,4.39166038 114.575027,4.39845283 114.563676,4.40898113 L114.524108,4.44769811 C114.519892,4.45211321 114.510811,4.46569811 114.507568,4.47113208 C114.505946,4.47384906 114.501405,4.48607547 114.500108,4.48879245 L114.479676,4.53701887 L114.48973,4.47316981 C114.490378,4.46977358 114.48973,4.44939623 114.48973,4.44633962 C114.484216,4.41509434 114.484216,4.41441509 114.116757,4.06018868 L114.112541,3.97222642 C114.111892,3.96849057 114.108,3.9494717 114.107351,3.94539623 L114.099568,3.924 C114.09827,3.91992453 114.092432,3.90362264 114.089838,3.89954717 C114.07427,3.87101887 114.07427,3.87 113.95427,3.81226415 L113.939676,3.77286792 C113.921189,3.73788679 113.896865,3.72158491 113.854378,3.71886792 L113.763568,3.71886792 C113.700324,3.72532075 113.700324,3.72532075 113.646162,4.01128302 C113.645514,4.01603774 113.644865,4.02758491 113.644865,4.03233962 C113.644865,4.04320755 113.646811,4.05339623 113.650703,4.06222642 C113.656541,4.07343396 113.662378,4.08464151 113.668865,4.09618868 L113.657838,4.09618868 C113.647459,4.09313208 113.638054,4.09313208 113.632865,4.09313208 C113.627351,4.09313208 113.605622,4.09618868 113.600757,4.09822642 C113.585838,4.10162264 113.572541,4.10875472 113.55827,4.12233962 C113.553081,4.12471698 113.547568,4.12675472 113.541405,4.12879245 C113.533297,4.13286792 113.524541,4.13558491 113.508,4.14475472 C113.504432,4.14781132 113.495027,4.15426415 113.492432,4.15698113 L113.485946,4.16173585 C113.448973,4.16173585 113.434378,4.17667925 113.379892,4.23611321 C113.370162,4.25275472 113.363027,4.28501887 113.367568,4.30403774 L113.38573,4.38215094 C113.393514,4.40388679 113.400973,4.41373585 113.426595,4.43343396 C113.423027,4.43750943 113.420432,4.4429434 113.419135,4.44566038 C113.415243,4.45211321 113.413297,4.45856604 113.411676,4.46569811 L113.388324,4.59 C113.386378,4.61479245 113.394811,4.63958491 113.411676,4.65860377 C113.424973,4.67422642 113.459027,4.69630189 113.502486,4.68815094 L113.677297,4.65045283 C113.681189,4.64909434 113.690919,4.64671698 113.694811,4.64535849 L113.844649,4.57233962 C113.851784,4.56826415 113.85827,4.56486792 113.862486,4.56011321 C113.864432,4.56962264 113.867351,4.57913208 113.869946,4.59 C113.871243,4.59237736 113.872216,4.59373585 113.873514,4.59645283 L113.850486,4.61411321 C113.844649,4.61886792 113.838811,4.62464151 113.83427,4.63313208 C113.831351,4.63618868 113.824541,4.64909434 113.822595,4.65316981 L113.790162,4.74350943 C113.784649,4.76932075 113.790162,4.79479245 113.804757,4.8165283 C113.820649,4.83928302 113.847243,4.85422642 113.883892,4.85762264 L113.941622,4.85762264 C113.942919,4.85762264 113.945514,4.8569434 113.947459,4.8569434 L113.922486,4.93811321 C113.921189,4.94490566 113.919892,4.95169811 113.919892,4.95916981 C113.919892,4.96324528 113.920541,4.97683019 113.921189,4.98158491 C113.926378,5.00773585 113.932865,5.03830189 113.939351,5.06411321 C113.942919,5.07430189 113.965946,5.10486792 113.972757,5.11233962 C113.984108,5.12626415 114.000973,5.13373585 114.019135,5.13441509 C114.059027,5.13577358 114.092432,5.13645283 114.124541,5.13645283 L114.250378,5.24886792 L114.241622,5.30286792 C114.240973,5.30830189 114.242919,5.3310566 114.242919,5.33649057 L114.260108,5.41392453 C114.200108,5.40271698 114.192649,5.40135849 113.952,5.36841509 C113.949405,5.36773585 113.946811,5.36773585 113.945514,5.36773585 C113.925081,5.36366038 113.912108,5.3609434 113.82973,5.34532075 C113.820649,5.34328302 113.811892,5.34328302 113.803459,5.346 L113.774595,5.35516981 C113.755135,5.36026415 113.738919,5.3745283 113.731459,5.39456604 C113.727243,5.40271698 113.723027,5.41188679 113.717838,5.42309434 L113.673405,5.43226415 C113.657189,5.43532075 113.643568,5.44516981 113.634162,5.45841509 C113.630919,5.46316981 113.625405,5.46996226 113.620541,5.47539623 C113.607568,5.49033962 113.60173,5.51173585 113.604324,5.53075472 C113.617297,5.61769811 113.633514,5.73350943 113.644865,5.82316981 L113.594919,6.07788679 C113.594919,6.08366038 113.594919,6.09554717 113.595568,6.10030189 C113.596865,6.10913208 113.597514,6.11728302 113.599459,6.13867925 C113.601405,6.15498113 113.608865,6.17128302 113.621189,6.18181132 L113.659784,6.21950943 L113.72173,6.39611321 C113.73827,6.43788679 113.787568,6.46233962 113.832,6.45418868 L113.948108,6.43007547 L114.000324,6.4905283 L113.603676,6.84781132 C113.597514,6.85324528 113.585189,6.87328302 113.582595,6.88041509 C113.578703,6.88550943 113.576757,6.89162264 113.575459,6.89773585 L113.511892,7.18335849 L113.230054,7.3949434 L113.1,7.45064151 C113.084432,7.45709434 113.071459,7.46932075 113.064324,7.48562264 C113.010811,7.6109434 112.923568,7.76173585 112.846054,7.89520755 C112.813622,7.95328302 112.781838,8.00864151 112.748757,8.07011321 L112.59373,8.42366038 C112.589838,8.43316981 112.587568,8.44403774 112.588541,8.45456604 C112.591135,8.49532075 112.591135,8.51535849 112.591135,8.53777358 C112.591135,8.5469434 112.593081,8.55713208 112.597946,8.56596226 C112.598595,8.56935849 112.605405,8.58532075 112.607351,8.58769811 L112.647892,8.65562264 L112.693297,8.99015094 L112.495784,9.39837736 C112.483135,9.42418868 112.487676,9.45645283 112.507784,9.47716981 L112.589838,9.56411321 C112.589189,9.6045283 112.588541,9.64630189 112.587568,9.68807547 C112.58627,9.69520755 112.584973,9.70301887 112.585622,9.71116981 L112.587568,9.74207547 C112.587568,9.75532075 112.590486,9.76720755 112.597946,9.77841509 L112.659568,9.8789434 L112.753622,9.9974717 L112.956649,10.3024528 C112.962162,10.3095849 112.968649,10.3156981 112.975135,10.3204528 L113.098054,10.4196226 L113.193081,10.5449434 C113.195676,10.5469811 113.202486,10.5551321 113.205081,10.5571698 L113.238811,10.5860377 C113.240108,10.5873962 113.250162,10.5969057 113.251459,10.5982642 L113.268649,10.6121887 C113.273838,10.617283 113.283243,10.6196604 113.290703,10.6223774 L113.578703,10.7996604 L113.672757,10.8852453 C113.682486,10.8930566 113.694162,10.8984906 113.706162,10.9008679 C113.709405,10.9015472 113.724,10.9029057 113.727892,10.9029057 C113.774595,10.9029057 113.821946,10.8818491 113.859243,10.8635094 L114.07427,10.8258113 L114.407676,10.8258113 C114.410595,10.8258113 114.426811,10.8244528 114.42973,10.8237736 L114.721946,10.7908302 C114.72973,10.7921887 114.737189,10.7921887 114.744,10.7908302 L114.783243,10.7836981 C114.790378,10.7823396 114.796541,10.7803019 114.803351,10.7758868 L114.925622,10.7042264 L115.055351,10.7025283 L115.140649,10.6824906 L115.20973,10.8866038 C115.220108,10.9158113 115.248324,10.9365283 115.276865,10.931434 L115.506162,10.9130943 L115.597946,11.0469057 L115.612865,11.0863019 L115.435135,11.4799245 C115.427351,11.4969057 115.426703,11.5176226 115.433838,11.535283 L115.585622,11.9356981 L115.616432,12.0243396 L115.623243,12.1051698 C115.623243,12.1065283 115.625189,12.1218113 115.625189,12.1224906 C115.625838,12.1330189 115.633297,12.1510189 115.637838,12.1591698 C115.641081,12.1700377 115.644649,12.180566 115.648216,12.1907547 C115.652757,12.2026415 115.656324,12.2131698 115.659243,12.2277736 L115.669297,12.2790566 L115.633946,12.4043774 L115.549622,12.8778113 L115.413081,13.0058491 L115.337189,13.1946792 L115.297297,13.2109811 C115.292108,13.2133585 115.272973,13.2276226 115.267784,13.2316981 C115.259027,13.2388302 115.252216,13.2486792 115.247027,13.2592075 C115.212324,13.3498868 115.180216,13.4290189 115.148108,13.5098491 C115.145514,13.5166415 115.142919,13.5370189 115.142919,13.5438113 C115.141946,13.5502642 115.142919,13.5584151 115.144216,13.5652075 L115.185081,13.7404528 C115.113405,14.0199623 115.020649,14.3378491 114.947027,14.5528302 C114.94573,14.5558868 114.943135,14.5653962 114.943135,14.5691321 L114.93373,14.6227925 L114.876324,14.7824151 C114.850054,14.8398113 114.839027,14.8608679 114.791351,14.955283 L114.727135,15.0201509 C114.688541,15.0656604 114.657405,15.1291698 114.630486,15.1848679 L114.608108,15.2300377 C114.599027,15.2466792 114.59773,15.2670566 114.603892,15.2860755 C114.610703,15.3040755 114.624324,15.3190189 114.641838,15.3258113 C114.682378,15.3421132 114.714162,15.3421132 114.743351,15.3421132 C114.750811,15.3421132 114.757946,15.3407547 114.765405,15.3380377 C114.790378,15.3285283 114.81827,15.312566 114.844541,15.297283 L114.861405,15.2867547 C114.969081,15.2650189 115.108216,15.2358113 115.229189,15.2086415 L115.446811,15.1033585 C115.450703,15.102 115.458811,15.0979245 115.462054,15.0958868 L115.805838,14.8459245 C115.808432,14.844566 115.810378,14.8418491 115.812324,14.8398113 L115.82173,14.8340377 C115.862595,14.8048302 115.952757,14.739283 115.97773,14.7172075 L116.150919,14.523283 L116.223568,14.4482264 L116.274486,14.4129057 L116.310486,14.4129057 C116.318919,14.4129057 116.327351,14.4105283 116.334811,14.4078113 C116.371135,14.3918491 116.400324,14.3626415 116.424649,14.3378491 L116.629622,14.1184528 C116.634162,14.1140377 116.638703,14.1086038 116.641297,14.1018113 L116.763568,13.8593208 L116.784973,13.8253585 L116.797946,13.8253585 C116.807351,13.8253585 116.816432,13.8226415 116.824541,13.818566 C116.860216,13.8019245 116.888757,13.7693208 116.910486,13.7431698 L116.952973,13.7064906 C116.955568,13.7041132 116.956865,13.7020755 116.959459,13.6993585 C117.050595,13.6327925 117.155027,13.5495849 117.219243,13.4979623 L117.232216,13.4979623 C117.243892,13.4979623 117.255568,13.4949057 117.26627,13.4884528 L117.266919,13.4877736 C117.25427,13.5047547 117.24,13.5237736 117.224432,13.5451698 C117.220865,13.5489057 117.209514,13.5652075 117.206595,13.5706415 L117.116757,13.7319623 L116.943568,13.8892075 C116.930919,13.9048302 116.930919,13.9048302 116.717514,14.232566 C116.700324,14.2621132 116.699027,14.2953962 116.69773,14.3364906 C116.696108,14.3633208 116.708432,14.3887925 116.730162,14.4016981 L116.732757,14.4037358 C116.746378,14.4118868 116.76227,14.4135849 116.779135,14.4118868 C116.783027,14.4105283 116.793081,14.4078113 116.797297,14.4057736 L116.932216,14.3436226 C116.947135,14.3364906 117.012324,14.2756981 117.161514,14.1031698 C117.171568,14.1113208 117.182595,14.1164151 117.191351,14.1198113 C117.199459,14.1232075 117.208541,14.1259245 117.217946,14.1259245 L117.218595,14.1259245 C117.222162,14.1259245 117.22573,14.1259245 117.229622,14.124566 C117.262703,14.1191321 117.286378,14.0902642 117.286378,14.0858491 C117.31427,14.0532453 117.338919,14.019283 117.362919,13.9846415 L117.389189,13.9466038 C117.398595,13.9330189 117.422919,13.8980377 117.403459,13.8579623 C117.399243,13.8491321 117.39373,13.8416604 117.386595,13.8352075 C117.430378,13.7822264 117.479676,13.7231321 117.531243,13.6586038 C117.526378,13.6677736 117.521838,13.6796604 117.521838,13.6932453 C117.521838,13.7119245 117.536108,13.7363774 117.548757,13.7489434 C117.551351,13.7513208 117.559459,13.7587925 117.56173,13.7608302 C117.57827,13.7740755 117.601622,13.7781509 117.622378,13.77 C117.643459,13.7618491 117.643459,13.7618491 117.736865,13.6453585 C117.754703,13.6192075 117.756649,13.6090189 117.770595,13.5516226 C117.771892,13.5465283 117.771892,13.5383774 117.771892,13.533283 C117.771892,13.515283 117.765405,13.4979623 117.752108,13.4850566 C117.732973,13.4626415 117.699892,13.4599245 117.674595,13.4738491 C117.666162,13.4789434 117.661622,13.4816604 117.647027,13.5006792 C117.660973,13.4779245 117.675243,13.4544906 117.689189,13.4324151 C117.693081,13.4317358 117.696649,13.4303774 117.700541,13.4290189 C117.725189,13.4212075 117.735892,13.4116981 117.756,13.3818113 L117.977189,12.9786792 C117.986595,12.9576226 117.986595,12.9542264 118.000216,12.8723774 C118.004757,12.846566 117.993081,12.8204151 117.972973,12.8051321 C117.931135,12.774566 117.904865,12.7813585 117.882486,12.7959623 C117.871784,12.8030943 117.867568,12.8064906 117.807568,12.8818868 C117.81827,12.8373962 117.795568,12.8078491 117.778054,12.7966415 C117.773189,12.7939245 117.768,12.7912075 117.761189,12.7891698 C117.740757,12.7833962 117.719027,12.782717 117.699243,12.782717 L117.680432,12.782717 L117.664865,12.782717 C117.670378,12.7701509 117.676541,12.7562264 117.682703,12.7436604 C117.69373,12.7212453 117.704757,12.6971321 117.715135,12.6723396 L117.736541,12.6278491 C117.740108,12.6190189 117.742703,12.6084906 117.743351,12.5986415 L117.743351,12.5636604 L117.843243,12.2756604 L117.860432,12.1890566 L117.946378,12.0403019 L117.979784,12.0049811 C117.985297,11.9985283 117.990486,11.9913962 117.993081,11.9839245 C118.021297,11.9136226 118.037514,11.8640377 118.047568,11.8276981 L118.130919,11.6877736 L118.181838,11.6123774 C118.192865,11.607283 118.204216,11.5984528 118.210378,11.5875849 L118.450054,11.2068679 L118.509081,11.1783396 C118.523676,11.1722264 118.535027,11.1603396 118.541514,11.1453962 L118.693297,10.8061132 C118.695243,10.8030566 118.696865,10.7989811 118.697514,10.7949057 C118.76627,10.6424151 118.840216,10.4430566 118.845081,10.4182642 L118.876216,10.2746038 C118.91027,10.1163396 118.949189,9.93633962 118.968649,9.80286792 C118.974162,9.79064151 118.975459,9.7770566 118.972541,9.76516981 L118.961189,9.68943396 C118.957297,9.66667925 118.94173,9.64698113 118.921946,9.63849057 C118.901189,9.62898113 118.877514,9.63169811 118.859351,9.6449434 L118.76173,9.71830189 C118.728,9.74343396 118.694595,9.76924528 118.661189,9.79335849 C118.658595,9.78656604 118.655027,9.77977358 118.649838,9.77433962 L118.644,9.76924528 L118.647892,9.72339623 C118.647892,9.72203774 118.647243,9.71354717 118.645946,9.70845283 C118.652432,9.70709434 118.656649,9.70437736 118.661838,9.70233962 C118.66573,9.70030189 118.672865,9.69588679 118.676757,9.69316981 L118.879459,9.52369811 C118.885946,9.51758491 118.89373,9.50637736 118.89827,9.49822642 L119.036432,9.23943396 C119.040973,9.23264151 119.043568,9.22313208 119.044216,9.21430189 C119.047459,9.18543396 119.049081,9.16369811 119.050054,9.14569811 C119.062703,9.13754717 119.072108,9.126 119.076973,9.11139623 L119.146378,8.92120755 C119.147676,8.91916981 119.149622,8.90660377 119.15027,8.90388679 L119.158054,8.81456604 C119.174919,8.64611321 119.193081,8.45456604 119.197297,8.29290566 C119.197297,8.28679245 119.196649,8.28067925 119.195676,8.27524528 L119.195676,8.27524528 Z" id="Fill-14" fill="#2974AE" sketch:type="MSShapeGroup"></path>
            <path id="Fill-15" fill="#2974AE" sketch:type="MSShapeGroup" d="M115.433189,11.3624151 C115.448108,11.3097736 115.439351,11.2520377 115.408865,11.2095849 C115.377405,11.1644151 115.324541,11.139283 115.261622,11.139283 C115.259027,11.139283 115.246378,11.139283 115.243135,11.1399623 C115.149405,11.1535472 115.074811,11.2184151 115.055351,11.3056981 C115.039784,11.3773585 115.064757,11.4473208 115.121514,11.4870566 C115.152,11.5094717 115.187676,11.5203396 115.226595,11.5203396 C115.321946,11.5203396 115.409514,11.4537736 115.433189,11.3624151"></path>
            <path d="M104.933514,8.32007547 C104.939351,8.32550943 104.947135,8.32924528 104.954595,8.33332075 L104.941622,8.36456604 C104.934162,8.39071698 104.935459,8.39920755 104.947135,8.47630189 C104.957514,8.50890566 104.970162,8.52079245 104.995135,8.53573585 C105.011351,8.54490566 105.030811,8.54626415 105.048,8.54015094 C105.052541,8.53845283 105.063892,8.53437736 105.069405,8.53166038 C105.061297,8.61079245 105.090486,8.68924528 105.145946,8.73101887 C105.172216,8.75003774 105.202703,8.76090566 105.233514,8.76090566 C105.323027,8.76090566 105.398595,8.67871698 105.411892,8.57071698 C105.415459,8.53437736 105.411892,8.49769811 105.401514,8.46577358 L105.434595,8.49701887 C105.433946,8.51128302 105.433946,8.52486792 105.432649,8.53845283 L105.431351,8.59754717 C105.435243,8.63422642 105.453405,8.6610566 105.485189,8.67633962 C105.490703,8.67939623 105.496216,8.68109434 105.502054,8.68177358 C105.508216,8.68313208 105.521189,8.68381132 105.528324,8.68313208 L105.730378,8.65222642 C105.72973,8.65833962 105.72973,8.66241509 105.730378,8.66649057 C105.730378,8.67022642 105.731027,8.67362264 105.731027,8.67701887 C105.714811,8.69875472 105.712216,8.72422642 105.712216,8.748 C105.701189,8.73577358 105.688541,8.72762264 105.675892,8.72422642 C105.629838,8.71030189 105.572757,8.69943396 105.518595,8.68992453 L105.449189,8.67633962 L105.448541,8.68007547 C105.437838,8.67701887 105.425838,8.67566038 105.419351,8.67566038 C105.388541,8.68245283 105.382378,8.69060377 105.32173,8.76735849 C105.306162,8.79045283 105.300324,8.81728302 105.304541,8.84445283 C105.309081,8.86992453 105.32173,8.89166038 105.335676,8.90116981 C105.368108,8.93003774 105.411892,8.95618868 105.450486,8.97826415 L105.493297,9.00407547 C105.499459,9.00849057 105.506919,9.01154717 105.514703,9.01290566 L105.524432,9.0149434 C105.531568,9.01630189 105.539027,9.01630189 105.547135,9.01562264 C105.552324,9.01426415 105.56627,9.01086792 105.570811,9.00849057 L105.68173,8.96366038 C105.686595,8.96162264 105.693081,8.95754717 105.697297,8.9534717 C105.720973,8.93581132 105.733946,8.91169811 105.736541,8.874 L105.736541,8.8274717 C105.76573,8.84988679 105.836757,8.86109434 106.023892,8.89335849 C106.028432,8.89403774 106.040757,8.89675472 106.045297,8.89675472 C106.047568,8.89675472 106.060541,8.89811321 106.062811,8.89811321 L106.06573,8.89811321 C106.069946,8.89811321 106.069946,8.89743396 106.073838,8.89675472 L106.387459,8.89675472 C106.390054,8.89675472 106.392649,8.89607547 106.395243,8.89539623 C106.410162,8.92120755 106.436757,8.93716981 106.470486,8.93920755 L106.672216,8.93920755 L106.676108,8.93920755 C106.699784,8.93784906 106.719892,8.928 106.734162,8.91441509 C106.73773,8.91781132 106.741622,8.92120755 106.744216,8.92460377 C106.756865,8.93581132 106.768865,8.94667925 106.784757,8.96298113 C106.80227,8.97656604 106.821405,8.98437736 106.842162,8.98437736 C106.84573,8.98437736 106.869081,8.98030189 106.872649,8.9789434 L106.912865,8.96569811 L106.912865,8.98301887 C106.916757,9.01901887 106.935892,9.04686792 106.968649,9.0614717 C106.960541,9.07573585 106.956649,9.09237736 106.955351,9.11139623 C106.955351,9.15588679 106.956,9.19935849 106.956649,9.24418868 L106.957946,9.29037736 C106.964432,9.34098113 106.996216,9.36067925 107.017946,9.36950943 L107.019243,9.41467925 C107.019243,9.41467925 107.019243,9.41603774 107.019892,9.4170566 C107.011459,9.43064151 107.006595,9.44830189 107.005946,9.46833962 C107.005946,9.50467925 107.007568,9.54203774 107.009514,9.58177358 C107.012108,9.60792453 107.024108,9.63169811 107.043568,9.64766038 C107.044216,9.66939623 107.045514,9.69079245 107.046811,9.7125283 C107.046811,9.71422642 107.046811,9.71558491 107.047459,9.71762264 C107.037081,9.73392453 107.029946,9.75532075 107.028649,9.77977358 C107.031243,9.80898113 107.032865,9.83784906 107.033838,9.8670566 L107.035135,9.88913208 C107.039676,9.92683019 107.067568,9.96588679 107.114919,9.97233962 C107.114919,9.97369811 107.114919,9.9750566 107.115243,9.97709434 L107.117838,10.0246415 L106.988757,9.90373585 C106.984216,9.89898113 106.978703,9.89524528 106.972216,9.8925283 L106.729946,9.83784906 C106.721189,9.83649057 106.713405,9.83649057 106.704324,9.83784906 L106.684865,9.84158491 C106.678703,9.8429434 106.673514,9.84566038 106.667676,9.84837736 L106.623892,9.87283019 L106.373514,9.80626415 L106.220432,9.61301887 C106.21427,9.60520755 106.207459,9.59943396 106.198378,9.59501887 L106.180216,9.58584906 C106.155892,9.57226415 106.126703,9.57769811 106.105622,9.59807547 L106.059243,9.6449434 L106.023243,9.62490566 C106.005405,9.61437736 105.985946,9.60384906 105.970378,9.59433962 C105.950919,9.58313208 105.926595,9.58313208 105.906811,9.59433962 L105.609405,9.76788679 C105.603568,9.7709434 105.588,9.78588679 105.584432,9.79132075 C105.578919,9.79777358 105.575027,9.80354717 105.572108,9.81101887 L105.478054,10.038566 L105.391135,9.97573585 C105.383676,9.96962264 105.373297,9.96588679 105.362595,9.9645283 L105.344757,9.96249057 C105.342486,9.96249057 105.339892,9.96181132 105.336973,9.96181132 C105.333081,9.96181132 105.330162,9.96249057 105.326919,9.96249057 L105.144649,9.99441509 L105.082378,9.87554717 L105.100541,9.29241509 C105.101514,9.27815094 105.102811,9.26083019 105.102811,9.24724528 C105.102811,9.23535849 105.099243,9.22313208 105.09373,9.2129434 C105.061946,9.15724528 105.012,9.09509434 104.971459,9.04381132 L104.953297,9.02071698 C104.94973,9.01562264 104.930919,9.00203774 104.925405,8.99796226 C104.918919,8.99388679 104.911135,8.99015094 104.903351,8.98879245 L104.750595,8.95618868 L104.750595,8.9534717 L104.751243,8.8125283 L104.933514,8.32007547 L104.933514,8.32007547 Z M109.064108,3.50864151 C109.088432,3.48316981 109.08973,3.44139623 109.066703,3.41456604 L108.914595,3.23762264 C108.911027,3.23490566 108.904216,3.22981132 108.900324,3.22675472 L108.841946,3.19449057 C108.881514,3.21486792 108.898054,3.20535849 109.041405,3.18158491 L109.063459,3.19584906 L109.049838,3.21350943 C109.007351,3.2834717 109.025189,3.29637736 109.243135,3.45056604 C109.244432,3.45124528 109.24573,3.45192453 109.247027,3.45328302 L109.030703,3.57588679 L109.013838,3.5609434 L109.064108,3.50864151 L109.064108,3.50864151 Z M109.020324,2.91328302 L109.219784,2.72275472 C109.24573,2.73226415 109.275243,2.74313208 109.309297,2.75433962 L109.218486,2.83618868 C109.215892,2.83856604 109.207459,2.84671698 109.204216,2.85011321 L109.158486,2.91260377 L109.020324,2.91328302 L109.020324,2.91328302 Z M108.127135,3.2189434 C108.135243,3.21554717 108.143351,3.21079245 108.149838,3.20433962 C108.154054,3.19856604 108.160216,3.19313208 108.164757,3.18939623 C108.177081,3.17954717 108.184865,3.16596226 108.188108,3.15067925 L108.296757,3.15067925 L108.294162,3.17173585 C108.289297,3.20535849 108.308432,3.23830189 108.339243,3.2474717 C108.38173,3.26139623 108.412216,3.26139623 108.435892,3.26139623 C108.443351,3.26139623 108.461514,3.25664151 108.468,3.25392453 L108.51373,3.2369434 L108.524108,3.24033962 C108.478378,3.28754717 108.438486,3.34358491 108.399568,3.39622642 C108.374595,3.43154717 108.349622,3.46618868 108.324973,3.49437736 L108.190054,3.54633962 C108.175784,3.55177358 108.164108,3.56162264 108.156324,3.5745283 L108.004216,3.83128302 L107.694162,3.94403774 C107.677622,3.94811321 107.663351,3.95864151 107.655243,3.97358491 C107.649405,3.98445283 107.642595,3.99498113 107.636757,4.00483019 C107.636108,4.0034717 107.635459,4.00211321 107.634811,4.00075472 L107.547568,3.85777358 L107.498595,3.6825283 C107.493405,3.66249057 107.479459,3.64618868 107.46,3.63871698 L107.466162,3.63328302 C107.480432,3.62173585 107.489189,3.60441509 107.490486,3.58573585 L107.492432,3.55313208 L107.703892,3.39215094 C107.775568,3.3629434 107.858919,3.32898113 107.941622,3.29433962 L108.127135,3.2189434 L108.127135,3.2189434 Z M108.808216,3.16596226 C108.813405,3.17445283 108.822162,3.1829434 108.832216,3.18939623 L108.741405,3.1394717 C108.736865,3.13641509 108.732,3.13437736 108.726162,3.13335849 L108.746595,3.00532075 C108.747892,2.99716981 108.747892,2.98969811 108.746595,2.98154717 L108.957081,2.93841509 C108.947027,2.94520755 108.932757,2.95471698 108.914595,2.96592453 C108.913297,2.96728302 108.902919,2.9774717 108.901622,2.97849057 L108.815676,3.08139623 C108.808216,3.09328302 108.788757,3.12792453 108.808216,3.16596226 L108.808216,3.16596226 Z M112.536,2.80901887 C112.561622,2.80901887 112.583676,2.79373585 112.594378,2.76996226 L112.619027,2.71732075 C112.633946,2.68641509 112.648541,2.65313208 112.660865,2.62562264 C112.664757,2.61475472 112.667351,2.60218868 112.665405,2.58928302 C112.663459,2.57026415 112.662162,2.55837736 112.649838,2.5454717 C112.664757,2.53528302 112.675784,2.51830189 112.679027,2.4989434 L112.712108,2.27309434 C112.713405,2.26154717 112.712108,2.24796226 112.707243,2.23607547 C112.714703,2.21841509 112.714703,2.19837736 112.706595,2.17935849 C112.685514,2.13283019 112.664757,2.08901887 112.644,2.04724528 C112.655676,2.04350943 112.667351,2.03230189 112.675135,2.02041509 L112.703351,2.02924528 C112.725081,2.03807547 112.749405,2.03366038 112.767568,2.01769811 L112.823676,1.96845283 C112.837297,1.95656604 112.845405,1.93822642 112.846054,1.91920755 L112.846054,1.91275472 C112.846054,1.89781132 112.842486,1.88015094 112.834378,1.86860377 C112.797405,1.81290566 112.726378,1.79660377 112.67027,1.78369811 C112.653081,1.7789434 112.636541,1.77588679 112.609946,1.76841509 C112.607351,1.76841509 112.595351,1.7670566 112.591784,1.7670566 C112.568432,1.7670566 112.545081,1.77249057 112.522378,1.78030189 C112.519459,1.76773585 112.511676,1.75483019 112.501297,1.74566038 C112.487027,1.73343396 112.47827,1.71713208 112.46627,1.69675472 C112.452649,1.66992453 112.432865,1.63766038 112.400757,1.61049057 C112.345297,1.5629434 112.272973,1.55037736 112.20973,1.5405283 C112.098486,1.52626415 111.982378,1.53679245 111.873081,1.548 C111.831243,1.5510566 111.790703,1.54969811 111.752108,1.54867925 C111.707676,1.54596226 111.661946,1.54460377 111.624649,1.54867925 C111.600324,1.55037736 111.580865,1.56362264 111.564,1.57007547 C111.547459,1.56362264 111.512108,1.55241509 111.485514,1.55954717 C111.409622,1.57958491 111.336324,1.64037736 111.265297,1.69743396 C111.250054,1.71033962 111.233838,1.72222642 111.219243,1.73445283 C111.217946,1.73207547 111.216649,1.73071698 111.214054,1.72766038 C111.202703,1.70626415 111.181946,1.69335849 111.158595,1.69267925 C111.09827,1.69132075 111.084649,1.68758491 111.067135,1.66415094 C111.063243,1.65769811 111.059676,1.64784906 111.056432,1.63630189 C111.046054,1.60233962 111.025946,1.5405283 110.944865,1.52422642 C110.94227,1.52422642 110.92573,1.52286792 110.921838,1.52286792 C110.899459,1.52286792 110.88,1.52762264 110.863784,1.53237736 L110.860865,1.53237736 C110.862162,1.53169811 110.862162,1.53101887 110.863135,1.52898113 C110.863784,1.49739623 110.863784,1.42233962 110.759676,1.39381132 C110.746703,1.39007547 110.732432,1.38803774 110.715568,1.38803774 C110.699027,1.38803774 110.638703,1.39075472 110.600108,1.41792453 C110.564108,1.44203774 110.553405,1.47158491 110.553405,1.48313208 C110.544649,1.49128302 110.536541,1.49535849 110.521297,1.50215094 C110.507351,1.50792453 110.490486,1.51573585 110.476216,1.5269434 C110.451892,1.54324528 110.43373,1.56362264 110.415568,1.58366038 C110.396757,1.60539623 110.375676,1.62883019 110.347459,1.62339623 C110.33027,1.61524528 110.311459,1.61592453 110.294595,1.62407547 C110.242054,1.6485283 110.221622,1.68113208 110.215459,1.71237736 C110.191784,1.73581132 110.159351,1.77520755 110.151892,1.81426415 C110.140865,1.82071698 110.12627,1.83056604 110.105514,1.84381132 L110.099676,1.75686792 C110.092541,1.72222642 110.050054,1.69403774 110.022162,1.69743396 C109.994595,1.70049057 109.97027,1.71441509 109.947243,1.74735849 L109.838919,1.82071698 C109.83373,1.82445283 109.821081,1.83498113 109.816865,1.83973585 L109.707892,1.96641509 C109.690703,1.98679245 109.684216,2.02584906 109.695243,2.04928302 C109.695892,2.05132075 109.696216,2.05267925 109.696865,2.05403774 C109.696216,2.05539623 109.695243,2.05675472 109.693946,2.05675472 C109.681297,2.03807547 109.660541,2.0309434 109.595676,2.01633962 C109.595676,2.01633962 109.596973,2.01633962 109.597622,2.01532075 C109.59827,2.01532075 109.611243,1.99596226 109.611243,1.99528302 L109.657946,1.90630189 C109.668973,1.88796226 109.671568,1.85739623 109.662811,1.83701887 C109.652432,1.81222642 109.62,1.79660377 109.594378,1.79388679 C109.565838,1.79456604 109.564541,1.79592453 109.459459,1.87471698 C109.455243,1.87743396 109.444216,1.89101887 109.440973,1.89509434 L109.388108,1.98916981 C109.381946,1.98543396 109.374162,1.98271698 109.366703,1.98135849 C109.374162,1.96777358 109.38,1.95011321 109.379351,1.93686792 C109.377405,1.90188679 109.357622,1.88422642 109.315135,1.85060377 C109.302486,1.84245283 109.285622,1.83837736 109.268432,1.84245283 C109.256432,1.84381132 109.249622,1.84618868 109.197081,1.87233962 L109.187027,1.86724528 C109.149081,1.84754717 109.101405,1.87607547 109.085838,1.88966038 C109.073189,1.90256604 109.060541,1.91615094 109.049189,1.92803774 C109.048216,1.926 109.047568,1.92396226 109.047243,1.92192453 C109.034919,1.89509434 109.005081,1.87743396 108.977189,1.88015094 L108.763135,1.90358491 C108.759892,1.90426415 108.746595,1.90833962 108.744,1.90969811 L108.592865,1.97354717 C108.557514,1.98916981 108.54973,2.00275472 108.512108,2.06558491 C108.511459,2.0669434 108.510811,2.06830189 108.510811,2.06830189 C108.504,2.06762264 108.498162,2.06626415 108.492,2.06626415 L108.36973,2.06626415 C108.363892,2.06626415 108.358054,2.06762264 108.352216,2.06898113 C108.349622,2.07033962 108.334054,2.07407547 108.331135,2.07475472 L108.079135,2.18479245 C108.075243,2.18649057 108.061297,2.19566038 108.057405,2.19837736 L107.909514,2.29754717 C107.886162,2.31418868 107.874162,2.33015094 107.868,2.35222642 C107.861514,2.37837736 107.872216,2.40860377 107.892649,2.42626415 C107.885514,2.4330566 107.88,2.4405283 107.873514,2.45037736 L107.857946,2.4045283 C107.851459,2.38483019 107.836541,2.37056604 107.819027,2.36411321 C107.816432,2.35562264 107.812541,2.34815094 107.806703,2.34067925 C107.790811,2.31962264 107.762919,2.30875472 107.736649,2.31962264 L107.710378,2.32743396 L107.694162,2.31962264 C107.685081,2.31418868 107.659459,2.31316981 107.649405,2.31316981 L107.492432,2.34067925 C107.493405,2.33456604 107.494703,2.32743396 107.496,2.32098113 C107.503784,2.28939623 107.511243,2.25509434 107.521622,2.22928302 C107.533622,2.19837736 107.520324,2.16067925 107.493405,2.14335849 C107.481081,2.13486792 107.466811,2.1314717 107.452216,2.13283019 C107.399351,2.1389434 107.328649,2.14709434 107.276108,2.15388679 C107.273838,2.15456604 107.257946,2.15932075 107.256649,2.15932075 L107.041622,2.24966038 C106.688757,2.50437736 106.354054,2.78864151 106.047243,3.09532075 C106.042703,3.10007547 106.036216,3.11230189 106.031027,3.1214717 L105.885405,3.31335849 C105.872432,3.32966038 105.868865,3.34935849 105.872432,3.36973585 L105.822811,3.41966038 L105.800108,3.41966038 C105.766378,3.42101887 105.766378,3.42101887 105.611676,3.58641509 C105.603568,3.59422642 105.590595,3.60713208 105.583135,3.62683019 C105.571459,3.63328302 105.556216,3.64754717 105.521189,3.67845283 L105.490703,3.71615094 C105.473514,3.73720755 105.456649,3.75860377 105.439135,3.78033962 C105.436541,3.78441509 105.433946,3.7905283 105.432,3.79732075 C105.424865,3.8010566 105.418054,3.80649057 105.412865,3.81362264 C105.385297,3.84758491 105.35773,3.88392453 105.331784,3.91992453 C105.316865,3.94132075 105.314919,3.97018868 105.326919,3.99430189 L105.304541,4.02079245 C105.300973,4.02079245 105.282486,4.02418868 105.272757,4.03030189 C105.253622,4.04049057 105.253622,4.04049057 105.132649,4.19366038 C105.131351,4.19535849 105.12,4.21098113 105.118703,4.21369811 L105.105405,4.23407547 C105.099243,4.24528302 105.087568,4.27177358 105.060973,4.33324528 L105.035676,4.39098113 C105.019459,4.39301887 105.002919,4.4025283 104.992216,4.41713208 L104.94227,4.48166038 C104.379568,5.36909434 103.993622,6.34754717 103.796108,7.398 L103.774378,7.67037736 L103.786703,8.02392453 L103.740324,8.39784906 C103.739676,8.40769811 103.739676,8.41686792 103.74227,8.42637736 L103.779243,8.56188679 C103.816216,8.69739623 103.858054,8.85056604 103.898919,8.97113208 C103.903135,8.9789434 103.913189,8.99456604 103.919351,9.00203774 L104.080216,9.17592453 C104.100324,9.19732075 104.132108,9.20241509 104.157081,9.18815094 L104.242703,9.14162264 L104.307568,9.31075472 C104.307568,9.31211321 104.315351,9.3270566 104.315351,9.32841509 C104.31827,9.33486792 104.322811,9.34030189 104.328,9.34573585 L104.368216,9.41332075 C104.371135,9.41841509 104.375027,9.42418868 104.379568,9.42826415 L104.453838,9.51113208 C104.45773,9.51384906 104.482054,9.53320755 104.485946,9.53592453 L104.595568,9.60316981 C104.595568,9.60588679 104.596865,9.60996226 104.598162,9.61369811 L104.75773,10.1149811 C104.759027,10.1183774 104.768108,10.1329811 104.770703,10.1356981 L104.808,10.1829057 C104.826162,10.206 104.85827,10.2138113 104.883892,10.2015849 L104.902054,10.1937736 L104.965297,10.2705283 L104.965946,10.2732453 C104.970162,10.2902264 104.980541,10.3044906 104.994486,10.3129811 C105.008108,10.3218113 105.018162,10.3275849 105.026919,10.332 C105.034378,10.3353962 105.041189,10.3377736 105.047027,10.3391321 L105.131351,10.4644528 C105.147892,10.4902642 105.181297,10.5004528 105.210162,10.4882264 L105.300324,10.4471321 C105.314919,10.4416981 105.325622,10.4298113 105.331784,10.4162264 L105.365514,10.4715849 C105.391135,10.6597358 105.424216,10.8489057 105.460865,11.0377358 L105.437838,11.1630566 L105.401514,11.2897358 L105.348649,11.5644906 C105.347351,11.5726415 105.347351,11.5821509 105.348649,11.5903019 C105.348649,11.5916604 105.352541,11.6079623 105.352541,11.6103396 C105.36973,11.6738491 105.387243,11.7383774 105.405405,11.8005283 L105.411243,11.820566 C105.414162,11.8304151 105.419351,11.8402642 105.427135,11.8484151 C105.432649,11.8531698 105.439135,11.859283 105.454054,11.8732075 C105.455351,11.874566 105.456649,11.8759245 105.458595,11.8779623 L105.451784,11.892566 C105.444649,11.9058113 105.442054,11.9217736 105.445297,11.9370566 C105.445946,11.9428302 105.450486,11.9642264 105.452757,11.9689811 L105.584432,12.2712453 C105.587027,12.2763396 105.590595,12.2824528 105.594486,12.2872075 L105.853622,12.5191698 L105.981405,12.7198868 C105.983351,12.7239623 105.994054,12.7375472 105.996649,12.7406038 C106.002486,12.7470566 106.008,12.7538491 106.008,12.7538491 C106.204216,13.0218113 106.486703,13.3790943 106.53827,13.4178113 L106.896324,13.6178491 C106.900541,13.6192075 106.904432,13.6209057 106.907676,13.6215849 C106.940757,13.6446792 106.977405,13.6664151 107.093189,13.7363774 L107.129189,13.7740755 C107.270595,13.9999245 107.476865,14.3269811 107.645514,14.5718491 C108.021081,15.0697358 108.122595,15.2032075 108.601622,15.7038113 C108.604216,15.7072075 108.612324,15.714 108.615243,15.716717 L108.744649,15.8128302 C108.763459,15.8325283 108.781946,15.8515472 108.800108,15.8695472 L108.828,15.8984151 C108.832216,15.9035094 108.836757,15.9069057 108.841946,15.9096226 C108.866919,15.9252453 108.898054,15.9337358 108.925622,15.9405283 C108.929189,15.966 108.939892,15.9741509 109.045297,16.0519245 C109.064108,16.0661887 109.083892,16.074 109.103676,16.074 C109.104324,16.0753585 109.104973,16.0760377 109.10627,16.076717 L109.143568,16.1361509 C109.151676,16.1466792 109.160432,16.1544906 109.172108,16.1602642 L109.260324,16.2 L109.276541,16.2271698 C109.281405,16.2346415 109.287568,16.2404151 109.294378,16.2465283 C109.330703,16.272 109.376757,16.2893208 109.417946,16.3039245 L109.444216,16.3137736 L109.445514,16.3144528 C109.450703,16.3355094 109.465297,16.3586038 109.479243,16.3698113 C109.487676,16.377283 109.497081,16.3847547 109.50227,16.3881509 C109.513946,16.3959623 109.524973,16.4027547 109.543135,16.4068302 L109.609946,16.4435094 C109.618703,16.4496226 109.643351,16.4567547 109.65373,16.4567547 L109.656649,16.4567547 C109.659892,16.4567547 109.664108,16.4553962 109.668,16.4553962 L109.693946,16.4713585 C109.696216,16.4740755 109.707892,16.4798491 109.710162,16.4812075 L109.744216,16.4951321 C109.750378,16.5107547 109.762703,16.5246792 109.77827,16.5321509 L109.918703,16.5983774 C109.935892,16.6065283 109.954703,16.6065283 109.971568,16.5983774 C109.974162,16.5970189 109.976757,16.5956604 109.978703,16.5939623 C109.981622,16.5970189 109.985838,16.5983774 109.98973,16.601434 C109.996216,16.614 110.006919,16.6245283 110.020216,16.6306415 L110.147351,16.688717 C110.153189,16.6910943 110.159351,16.6924528 110.166811,16.6931321 C110.177838,16.6938113 110.187243,16.6955094 110.194378,16.6955094 C110.197946,16.6975472 110.202486,16.6995849 110.207351,16.6995849 C110.249838,16.7087547 110.27027,16.7087547 110.290703,16.7087547 C110.315351,16.7087547 110.337405,16.6938113 110.348108,16.6727547 L110.359784,16.670717 C110.382162,16.6673208 110.401622,16.6520377 110.410703,16.6306415 C110.419784,16.608566 110.416865,16.583434 110.404216,16.5630566 C110.404216,16.5630566 110.403568,16.562717 110.402919,16.5620377 C110.404216,16.562717 110.406162,16.5630566 110.408108,16.5644151 C110.416865,16.5671321 110.439892,16.5671321 110.449297,16.5657736 C110.458378,16.5637358 110.467135,16.56 110.474919,16.554566 C110.489189,16.5440377 110.499892,16.5253585 110.503135,16.5066792 C110.50573,16.4866415 110.497946,16.4608302 110.485297,16.4462264 L110.428541,16.377283 C110.415568,16.3626792 110.413622,16.3613208 110.342595,16.326 C110.335784,16.3239623 110.320216,16.3215849 110.313405,16.3215849 C110.304,16.3195472 110.293297,16.3246415 110.284541,16.328717 C110.271568,16.3327925 110.259892,16.3321132 110.249838,16.3378868 C110.222919,16.3545283 110.208649,16.395283 110.218703,16.4258491 C110.22227,16.4377358 110.229081,16.452 110.240108,16.4740755 L110.140865,16.4390943 C110.136324,16.4363774 110.12627,16.4333208 110.118486,16.431283 C110.112649,16.4299245 110.106811,16.4292453 110.101297,16.428566 L110.072108,16.4013962 C110.068216,16.3973208 110.058162,16.3908679 110.053946,16.3881509 L109.974162,16.3399245 L109.891135,16.2118868 C109.889838,16.2091698 109.880432,16.1979623 109.879135,16.1966038 C109.861946,16.1806415 109.846703,16.1629811 109.830811,16.1439623 C109.823676,16.1354717 109.81427,16.1293585 109.802919,16.1249434 L109.719243,16.0957358 C109.719243,16.0801132 109.713405,16.0648302 109.703351,16.0519245 C109.639784,15.9727925 109.58173,15.8997736 109.523027,15.8233585 C109.517514,15.8158868 109.511351,15.8101132 109.503568,15.8056981 L109.48573,15.7948302 C109.501622,15.7737736 109.504216,15.7442264 109.491568,15.7207925 C109.487676,15.711283 109.483135,15.7031321 109.478595,15.6973585 L109.561946,15.6345283 C109.576541,15.6246792 109.587892,15.5981887 109.589838,15.5805283 C109.591784,15.5730566 109.591784,15.5659245 109.590486,15.5584528 L109.568432,15.4141132 C109.567135,15.4001887 109.560973,15.3866038 109.551243,15.3764151 C109.537622,15.3624906 109.523676,15.351283 109.506811,15.3421132 L109.520432,15.3366792 C109.533405,15.3322642 109.551892,15.315283 109.559676,15.3030566 C109.564541,15.2966038 109.568432,15.2891321 109.56973,15.2813208 L109.600865,15.1719623 L109.615459,15.153283 C109.622595,15.1454717 109.626486,15.1349434 109.628757,15.1247547 L109.657297,14.9875472 L109.668649,14.9753208 C109.674162,14.9685283 109.681946,14.9508679 109.684216,14.9423774 C109.686811,14.9349057 109.688108,14.9253962 109.687459,14.9172453 L109.684216,14.844566 L109.687459,14.8404906 C109.705297,14.8218113 109.710811,14.793283 109.701405,14.7691698 L109.573297,14.4227547 C109.721189,14.3371698 109.903135,14.2339245 110.043892,14.1571698 C110.06173,14.1463019 110.074378,14.1279623 110.076973,14.106566 L110.092541,13.9999245 C110.115568,13.8416604 110.141514,13.6599623 110.164865,13.515283 C110.166162,13.5064528 110.164865,13.4918491 110.163568,13.4830189 L110.075676,13.0843019 L110.112649,13.0353962 L110.175568,13.0106038 C110.184,13.0072075 110.191784,13.0017736 110.197946,12.996 L110.210919,12.9817358 C110.216108,12.9766415 110.220973,12.9705283 110.223892,12.965434 L110.335784,12.7443396 C110.337405,12.7429811 110.338054,12.741283 110.338703,12.7392453 L110.465514,12.5015094 C110.46973,12.4936981 110.473622,12.4692453 110.474919,12.4604151 C110.475568,12.4539623 110.474919,12.4461509 110.473622,12.4396981 L110.403568,12.0661132 C110.399676,12.0460755 110.387027,12.0284151 110.369514,12.0192453 C110.183351,11.9207547 109.935892,11.7913585 109.735459,11.6898113 C109.733514,11.6884528 109.718595,11.6857358 109.716,11.6843774 L109.210054,11.6130566 L109.035568,11.5430943 L108.838703,11.3923019 C108.836108,11.3909434 108.823459,11.3834717 108.819568,11.3821132 L108.775784,11.3637736 L108.781297,11.3518868 C108.790703,11.3328679 108.786162,11.3002642 108.777081,11.2819245 C108.772541,11.270717 108.766703,11.2584906 108.761189,11.2506792 C108.748541,11.2330189 108.723892,11.2160377 108.707027,11.2224906 L108.699892,11.2238491 L108.552973,11.0951321 L108.369081,10.8203774 C108.366486,10.8098491 108.360973,10.8003396 108.353514,10.7921887 L108.334054,10.7684151 C108.326919,10.7606038 108.317838,10.7544906 108.308432,10.7504151 L107.991568,10.5996226 L107.893297,10.5177736 C107.88,10.5062264 107.861514,10.5011321 107.843676,10.5038491 L107.650703,10.5306792 L107.413622,10.2973585 C107.427243,10.298717 107.431784,10.2966792 107.440541,10.2936226 L107.457405,10.2864906 C107.479784,10.2773208 107.496,10.2555849 107.498595,10.2301132 C107.503784,10.1791698 107.503784,10.1407925 107.501838,10.1081887 L107.568649,10.0409434 C107.581622,10.0276981 107.588757,10.0103774 107.588757,9.99169811 L107.588757,9.95637736 C107.588757,9.92003774 107.562162,9.89049057 107.528432,9.88811321 C107.444432,9.88233962 107.372432,9.87962264 107.304324,9.8789434 C107.304324,9.87486792 107.304973,9.87079245 107.304973,9.86773585 C107.304973,9.85245283 107.304973,9.85109434 107.27773,9.7709434 C107.303027,9.75430189 107.31827,9.72611321 107.31827,9.69316981 C107.31827,9.67822642 107.31827,9.67754717 107.279676,9.5654717 C107.278378,9.54645283 107.270595,9.51962264 107.254703,9.46833962 C107.263459,9.46222642 107.271892,9.45373585 107.279027,9.44150943 C107.299135,9.40415094 107.290054,9.37528302 107.254703,9.26218868 C107.253405,9.25811321 107.251459,9.25539623 107.250162,9.25132075 C107.254703,9.23535849 107.255351,9.21735849 107.250162,9.20037736 C107.28227,9.18543396 107.304324,9.1545283 107.306919,9.11411321 C107.306919,9.09916981 107.306919,9.09916981 107.271892,8.98030189 C107.257946,8.94939623 107.236541,8.93479245 107.215459,8.928 C107.215459,8.92596226 107.215459,8.92358491 107.216108,8.92120755 C107.218703,8.89471698 107.210595,8.86720755 107.194378,8.84716981 C107.178162,8.8274717 107.155135,8.81592453 107.125622,8.81456604 L107.103243,8.81456604 C107.097081,8.78298113 107.075027,8.75139623 107.034486,8.73883019 C106.979351,8.72354717 106.908973,8.71098113 106.842811,8.69875472 C106.80973,8.69264151 106.778919,8.6865283 106.759459,8.68313208 C106.748757,8.68007547 106.728,8.67871698 106.716649,8.68007547 C106.693946,8.68516981 106.676108,8.69739623 106.662486,8.7150566 C106.637189,8.69467925 106.611892,8.67430189 106.587243,8.65562264 L106.532432,8.61215094 C106.519135,8.59890566 106.485405,8.58396226 106.467243,8.58973585 C106.439351,8.59245283 106.415676,8.6070566 106.399784,8.63558491 L106.398162,8.63354717 L106.206811,8.52079245 L106.11827,8.48683019 C106.107568,8.48037736 106.097514,8.47766038 106.073838,8.47086792 C106.064108,8.46849057 106.048865,8.46849057 106.038811,8.47018868 C106.038811,8.47018868 106.037514,8.47086792 106.036216,8.47086792 L105.985946,8.47086792 C105.979135,8.47086792 105.971676,8.47222642 105.964216,8.4749434 C105.960973,8.47630189 105.946054,8.48241509 105.942486,8.48411321 L105.935676,8.4885283 C105.935676,8.48683019 105.936973,8.48615094 105.936973,8.48615094 C105.93827,8.48241509 105.939243,8.47901887 105.940541,8.4749434 C105.940541,8.47358491 105.941838,8.47086792 105.941838,8.46950943 L106.009297,8.46950943 L106.014486,8.46950943 C106.062811,8.46577358 106.093297,8.42433962 106.096865,8.39275472 C106.10173,8.36320755 106.10173,8.36320755 106.045297,8.21581132 C106.028432,8.17709434 105.984649,8.154 105.948,8.16486792 C105.931784,8.1689434 105.910054,8.17777358 105.889297,8.21003774 C105.875027,8.23584906 105.859784,8.26879245 105.845514,8.29867925 L105.838703,8.31464151 C105.769622,8.26403774 105.69373,8.21071698 105.617838,8.1570566 C105.511459,8.08132075 105.404108,8.00592453 105.315568,7.93698113 C105.306162,7.9305283 105.279243,7.92373585 105.267568,7.9230566 C105.260108,7.92237736 105.254919,7.92237736 105.248432,7.92441509 L105.061946,7.96516981 C105.05773,7.96686792 105.048649,7.96822642 105.044432,7.9709434 C105.010054,7.98384906 105.008757,7.9845283 104.91827,8.19679245 C104.908541,8.1869434 104.897189,8.17981132 104.885838,8.17573585 C104.876108,8.17301887 104.866703,8.17166038 104.857297,8.17301887 L104.562162,8.21784906 C104.536216,8.22158491 104.515784,8.24128302 104.508,8.26743396 L104.441189,8.52690566 L104.342919,8.54558491 L104.261838,8.30784906 L104.344541,7.85003774 L104.417838,7.61773585 L104.484,7.50837736 C104.558595,7.38781132 104.639351,7.25501887 104.710054,7.14566038 L104.811892,7.14566038 L104.956216,7.29 C104.976649,7.31139623 105.008108,7.3154717 105.033405,7.29984906 C105.092432,7.26520755 105.115459,7.19456604 105.132649,7.13241509 L105.316865,7.19762264 L105.294486,7.74577358 C105.293189,7.77260377 105.307459,7.79841509 105.329514,7.80962264 C105.384973,7.84018868 105.424216,7.84018868 105.452432,7.84018868 C105.468324,7.84018868 105.485189,7.8330566 105.496865,7.82083019 L105.522486,7.7970566 C105.523135,7.80350943 105.525081,7.81301887 105.525081,7.81573585 L105.553622,7.90064151 C105.560108,7.92509434 105.576324,7.95532075 105.633081,7.96516981 L105.719027,7.96516981 C105.72227,7.96516981 105.724541,7.96516981 105.725838,7.96449057 C105.764432,7.95973585 105.794919,7.93154717 105.802703,7.89724528 C105.810811,7.87381132 105.810811,7.87381132 105.78,7.70060377 C105.769622,7.65815094 105.738811,7.63166038 105.697297,7.63166038 L105.631784,7.63166038 L105.68173,7.45709434 C105.697297,7.34128302 105.714811,7.22649057 105.735243,7.11339623 L105.894811,6.82573585 L105.908757,6.82573585 C105.918486,6.82573585 105.926595,6.82369811 105.935676,6.81962264 L106.129622,6.6854717 C106.240541,6.60532075 106.358919,6.52007547 106.456865,6.4514717 C106.464973,6.44671698 106.470486,6.43992453 106.475676,6.43245283 C106.492216,6.40630189 106.498378,6.39611321 106.500973,6.38116981 C106.517514,6.30373585 106.534378,6.22630189 106.553838,6.15090566 C106.55773,6.15362264 106.561297,6.15701887 106.567784,6.16211321 C106.595027,6.1845283 106.632,6.18249057 106.656,6.15769811 L106.934595,5.8649434 C106.938486,5.86120755 106.947243,5.85135849 106.949838,5.8469434 L106.987459,5.78275472 L107.286162,5.75083019 C107.302378,5.74845283 107.317297,5.74098113 107.328,5.72875472 L107.412324,5.63196226 C107.429189,5.6129434 107.43373,5.58577358 107.425622,5.562 L107.418811,5.54332075 L107.476865,5.45841509 L107.537189,5.45841509 C107.543676,5.45841509 107.549514,5.45773585 107.555351,5.45569811 C107.559243,5.45501887 107.57773,5.44856604 107.580973,5.44720755 L107.796,5.33886792 L107.783027,5.39320755 C107.777838,5.41324528 107.783027,5.436 107.796,5.45264151 L107.813189,5.47539623 C107.831351,5.49781132 107.861514,5.50596226 107.886162,5.49577358 C107.992865,5.454 108.123892,5.40101887 108.244216,5.3534717 L108.374595,5.30083019 C108.383676,5.29777358 108.391784,5.29064151 108.399568,5.28350943 L108.419676,5.25973585 C108.423892,5.25464151 108.426811,5.24818868 108.429405,5.24207547 L108.504,5.24207547 L108.506595,5.24207547 C108.537405,5.2410566 108.543892,5.23698113 108.631135,5.17109434 C108.637946,5.16396226 108.65027,5.14562264 108.653514,5.13713208 C108.670054,5.09671698 108.65773,5.06988679 108.631135,5.04033962 L108.652216,4.94558491 C108.654811,4.92690566 108.64573,4.89158491 108.633081,4.87596226 C108.617189,4.85762264 108.595459,4.84913208 108.560108,4.84641509 C108.522811,4.84913208 108.520541,4.84913208 108.326919,5.06275472 L108.278595,5.00637736 C108.285081,4.97954717 108.292216,4.95237736 108.298054,4.92622642 L108.299351,4.92622642 C108.316216,4.92622642 108.332757,4.91943396 108.344432,4.90720755 L108.437838,4.8134717 C108.452432,4.79886792 108.45827,4.76490566 108.456324,4.74350943 L108.454378,4.7265283 C108.452432,4.71124528 108.445946,4.69630189 108.435892,4.68543396 L108.733297,4.68543396 L108.730703,4.68679245 C108.719027,4.6949434 108.692432,4.71396226 108.689189,4.75132075 C108.686595,4.77339623 108.692432,4.79139623 108.704432,4.80803774 L108.669405,4.86611321 C108.659676,4.88581132 108.657081,4.92283019 108.666486,4.94218868 C108.685297,4.98226415 108.69827,4.98701887 108.89027,5.02098113 L108.905514,5.06139623 C108.913297,5.07124528 108.931135,5.09943396 108.980108,5.10215094 L109.045946,5.10045283 C109.064108,5.09807547 109.074486,5.09535849 109.091676,5.08041509 C109.104973,5.09128302 109.122811,5.09807547 109.144865,5.10215094 L109.202919,5.10215094 C109.206811,5.10215094 109.211351,5.10215094 109.214595,5.10045283 C109.243784,5.09535849 109.243784,5.09535849 109.372865,5.0009434 C109.379351,4.99415094 109.397514,4.97683019 109.402703,4.94898113 C109.405297,4.93335849 109.407892,4.91739623 109.411135,4.8929434 C109.411135,4.85558491 109.398811,4.83520755 109.370595,4.81754717 L109.386162,4.78901887 C109.393622,4.77203774 109.396216,4.74079245 109.389405,4.72449057 C109.379351,4.69901887 109.369297,4.68815094 109.31773,4.66233962 L109.424108,4.57233962 C109.450703,4.54686792 109.460757,4.50883019 109.447459,4.47520755 C109.439676,4.45516981 109.42573,4.43886792 109.405297,4.43003774 L109.471459,4.32950943 C109.472757,4.3274717 109.474054,4.32543396 109.475351,4.32271698 C109.485081,4.30675472 109.488324,4.28637736 109.483784,4.26735849 C109.477297,4.24392453 109.459459,4.22558491 109.436108,4.22049057 L109.29827,4.18483019 C109.302486,4.17871698 109.304757,4.17328302 109.307351,4.16649057 C109.325189,4.11316981 109.335568,4.07139623 109.345946,4.03233962 L109.351135,4.014 C109.357622,3.98581132 109.347243,3.95524528 109.322595,3.93962264 L109.298919,3.92264151 C109.301189,3.91788679 109.301838,3.91279245 109.302486,3.90837736 L109.31773,3.85471698 C109.347892,3.6509434 109.369297,3.54769811 109.370595,3.54056604 C109.376108,3.51135849 109.365405,3.48316981 109.340757,3.46754717 L109.326486,3.45769811 C109.35373,3.44784906 109.361514,3.43833962 109.417297,3.33475472 C109.423459,3.3374717 109.428324,3.33950943 109.433514,3.34154717 C109.438703,3.34222642 109.456541,3.34630189 109.462054,3.34630189 L109.502919,3.34630189 C109.542486,3.3449434 109.544432,3.34426415 109.707243,3.16664151 C109.719243,3.17445283 109.734811,3.17954717 109.745514,3.17954717 C109.77827,3.17954717 109.788973,3.17309434 110.053946,3.02467925 C110.058811,3.02332075 110.064973,3.01822642 110.068216,3.01550943 C110.080865,3.00396226 110.096432,2.97916981 110.098378,2.96286792 C110.103568,2.92890566 110.104216,2.92618868 109.958595,2.73939623 L110.028973,2.65381132 C110.053297,2.60762264 110.053297,2.60762264 109.912216,2.39366038 C109.908649,2.38686792 109.897622,2.37769811 109.891784,2.37362264 C109.886595,2.36954717 109.88173,2.36615094 109.876541,2.36411321 L109.867135,2.36071698 C109.885297,2.34815094 109.907351,2.32233962 109.954054,2.26935849 C109.956,2.26698113 109.958595,2.26426415 109.959892,2.26154717 C109.97027,2.26562264 109.980324,2.26562264 109.991027,2.26290566 C110.056216,2.24796226 110.119784,2.2034717 110.176216,2.16475472 C110.191784,2.15388679 110.207351,2.14335849 110.221622,2.13418868 L110.245946,2.13418868 C110.250811,2.13418868 110.262486,2.13215094 110.266054,2.13079245 L110.371784,2.10532075 C110.387027,2.09750943 110.401622,2.08528302 110.415568,2.06354717 L110.416865,2.07916981 C110.417514,2.09037736 110.421081,2.10124528 110.425946,2.11075472 C110.425946,2.11075472 110.425946,2.11211321 110.427243,2.11279245 C110.422378,2.12841509 110.418486,2.14267925 110.41427,2.15796226 C110.412,2.16475472 110.412,2.17935849 110.412,2.18581132 C110.412,2.1929434 110.413622,2.20007547 110.414919,2.2065283 L110.431135,2.2530566 C110.436324,2.26867925 110.457081,2.28871698 110.46973,2.29686792 C110.479135,2.30196226 110.489189,2.30535849 110.500541,2.30535849 C110.562162,2.30671698 110.620216,2.30739623 110.66627,2.30535849 L110.726595,2.31758491 L110.741189,2.35732075 L110.69027,2.50166038 C110.68573,2.51218868 110.687351,2.53528302 110.688649,2.54615094 C110.690919,2.56109434 110.697081,2.57501887 110.706811,2.58588679 C110.700324,2.60354717 110.700973,2.62392453 110.708757,2.64158491 C110.71427,2.65516981 110.723351,2.6714717 110.731135,2.68641509 L110.742486,2.70950943 C110.746703,2.71664151 110.751243,2.72343396 110.757081,2.72886792 L110.663027,2.72954717 C110.629297,2.73362264 110.629297,2.73362264 110.486595,2.85962264 C110.479135,2.86675472 110.467784,2.88645283 110.463568,2.89664151 C110.461622,2.90071698 110.459676,2.90683019 110.459027,2.91260377 L110.435027,3.0494717 C110.433081,3.06135849 110.434378,3.07256604 110.437622,3.08411321 C110.442486,3.09871698 110.450595,3.1109434 110.459676,3.1214717 C110.459676,3.1245283 110.459027,3.12724528 110.458378,3.13064151 L110.429189,3.14083019 C110.423676,3.14354717 110.416865,3.1469434 110.412,3.15 C110.403568,3.15679245 110.382811,3.1710566 110.374378,3.19924528 C110.371459,3.2114717 110.370811,3.22403774 110.373081,3.23626415 L110.447676,3.54260377 C110.451243,3.55720755 110.459676,3.56943396 110.46973,3.57860377 C110.482703,3.5894717 110.493081,3.59626415 110.502486,3.60101887 C110.511243,3.60441509 110.520324,3.60713208 110.528432,3.60713208 L110.597838,3.60713208 L110.640649,3.68388679 C110.644865,3.69203774 110.650703,3.69883019 110.658162,3.70460377 C110.679568,3.72158491 110.709405,3.73245283 110.739892,3.72532075 L110.875459,3.69271698 C110.883892,3.69067925 110.890703,3.68626415 110.897189,3.6825283 L110.995784,3.58301887 C111.087892,3.48181132 111.192,3.36769811 111.276,3.27430189 L111.479351,3.19856604 C111.482919,3.19788679 111.498811,3.18803774 111.502054,3.186 L111.531243,3.16392453 L111.564649,3.17513208 C111.570162,3.17649057 111.582162,3.17818868 111.587351,3.17818868 C111.621081,3.17818868 111.631135,3.1710566 111.74173,3.08411321 L111.942486,2.96660377 L112.050486,2.98833962 C112.056649,2.98969811 112.062162,2.98969811 112.068649,2.98833962 L112.101081,2.98290566 C112.226919,2.93467925 112.395892,2.86913208 112.52173,2.81716981 C112.52627,2.81581132 112.531459,2.81241509 112.536,2.80901887 L112.536,2.80901887 Z" id="Fill-16" fill="#2974AE" sketch:type="MSShapeGroup"></path>
            <path id="Fill-17" fill="#2974AE" sketch:type="MSShapeGroup" d="M112.717622,3.46007547 L112.723135,3.46007547 C112.746162,3.46007547 112.746162,3.46007547 113.093514,3.30113208 C113.132432,3.2729434 113.131784,3.23558491 113.12627,3.21011321 C113.12173,3.19075472 113.115243,3.17173585 113.106162,3.14354717 C113.10227,3.13403774 113.098054,3.12520755 113.090919,3.11773585 C113.088324,3.11569811 113.076973,3.1034717 113.074378,3.10143396 L112.935243,2.98698113 C112.92227,2.9774717 112.896324,2.96796226 112.863568,2.96660377 L112.605405,3.01550943 L112.547351,2.9774717 C112.538595,2.97271698 112.516865,2.96728302 112.507784,2.96728302 C112.487027,2.96728302 112.464,2.97271698 112.327784,3.00192453 C112.298595,3.01109434 112.277838,3.03283019 112.271676,3.06 C112.264865,3.08411321 112.276216,3.12316981 112.294054,3.14083019 C112.31773,3.16324528 112.347892,3.18362264 112.376108,3.20128302 L112.354703,3.25460377 C112.348541,3.27226415 112.349189,3.30113208 112.357297,3.31743396 C112.375459,3.35649057 112.375459,3.35649057 112.698162,3.45701887 C112.704649,3.4590566 112.710811,3.46007547 112.717622,3.46007547"></path>
            <path d="M111.436541,1.23724528 C107.358162,1.23724528 104.039676,4.71192453 104.039676,8.98301887 C104.039676,13.2541132 107.358162,16.7294717 111.436541,16.7294717 C115.515243,16.7294717 118.83373,13.2541132 118.83373,8.98301887 C118.83373,4.71192453 115.515243,1.23724528 111.436541,1.23724528 L111.436541,1.23724528 Z M111.436541,17.850566 C106.767243,17.850566 102.968432,13.872566 102.968432,8.98301887 C102.968432,4.09381132 106.767243,0.115811321 111.436541,0.115811321 C116.105838,0.115811321 119.904649,4.09381132 119.904649,8.98301887 C119.904649,13.872566 116.105838,17.850566 111.436541,17.850566 L111.436541,17.850566 Z" id="Fill-18" fill="#2B75AE" sketch:type="MSShapeGroup"></path>
        </g>
    </g>
</svg>