<?xml version="1.0" encoding="UTF-8" standalone="no"?>
<svg width="127px" height="114px" viewBox="0 0 127 114" version="1.1" xmlns="http://www.w3.org/2000/svg" xmlns:xlink="http://www.w3.org/1999/xlink">
    <!-- Generator: Sketch 41 (35326) - http://www.bohemiancoding.com/sketch -->
    <title>Busca</title>
    <desc>Created with Sketch.</desc>
    <defs>
        <rect id="path-1" x="18" y="1" width="13" height="14" rx="1"></rect>
        <mask id="mask-2" maskContentUnits="userSpaceOnUse" maskUnits="objectBoundingBox" x="0" y="0" width="13" height="14" fill="white">
            <use xlink:href="#path-1"></use>
        </mask>
        <rect id="path-3" x="3" y="33" width="15" height="6" rx="1"></rect>
        <mask id="mask-4" maskContentUnits="userSpaceOnUse" maskUnits="objectBoundingBox" x="0" y="0" width="15" height="6" fill="white">
            <use xlink:href="#path-3"></use>
        </mask>
        <rect id="path-5" x="3" y="41" width="18" height="4" rx="1"></rect>
        <mask id="mask-6" maskContentUnits="userSpaceOnUse" maskUnits="objectBoundingBox" x="0" y="0" width="18" height="4" fill="white">
            <use xlink:href="#path-5"></use>
        </mask>
        <rect id="path-7" x="0" y="2" width="48" height="47" rx="2"></rect>
        <mask id="mask-8" maskContentUnits="userSpaceOnUse" maskUnits="objectBoundingBox" x="-2" y="-2" width="52" height="51">
            <rect x="-2" y="0" width="52" height="51" fill="white"></rect>
            <use xlink:href="#path-7" fill="black"></use>
        </mask>
        <rect id="path-9" x="5" y="35" width="4" height="1" rx="0.5"></rect>
        <mask id="mask-10" maskContentUnits="userSpaceOnUse" maskUnits="objectBoundingBox" x="0" y="0" width="4" height="1" fill="white">
            <use xlink:href="#path-9"></use>
        </mask>
        <rect id="path-11" x="10" y="35" width="2" height="1" rx="0.5"></rect>
        <mask id="mask-12" maskContentUnits="userSpaceOnUse" maskUnits="objectBoundingBox" x="0" y="0" width="2" height="1" fill="white">
            <use xlink:href="#path-11"></use>
        </mask>
        <polygon id="path-13" points="-5.68434189e-14 145.831875 73.4749524 145.831875 73.4749524 0.00176434426 -5.68434189e-14 0.00176434426"></polygon>
    </defs>
    <g id="Landing-1" stroke="none" stroke-width="1" fill="none" fill-rule="evenodd">
        <g id="SS-1200-Nuevo-Layout" transform="translate(-927.000000, -1223.000000)">
            <g id="Busca" transform="translate(903.000000, 1206.000000)">
                <g id="Group-8">
                    <g id="Group" transform="translate(101.000000, 44.000000)">
                        <rect id="Rectangle-214" fill="#FFFFFF" x="0" y="2" width="48" height="47" rx="2"></rect>
                        <path d="M0.5,4.5 L47.6699066,4.5" id="Line" stroke="#76B2DB" stroke-linecap="square"></path>
                        <path d="M24.5,0.675675676 L24.5,49.3430885" id="Line" stroke="#76B2DB" stroke-linecap="square"></path>
                        <use id="Rectangle-216" stroke="#76B2DB" mask="url(#mask-2)" stroke-width="2" fill="#FFFFFF" xlink:href="#path-1"></use>
                        <use id="Rectangle-217" stroke="#76B2DB" mask="url(#mask-4)" stroke-width="2" fill="#E7F2F9" xlink:href="#path-3"></use>
                        <use id="Rectangle-217-Copy" stroke="#76B2DB" mask="url(#mask-6)" stroke-width="2" fill="#E7F2F9" xlink:href="#path-5"></use>
                        <use id="Rectangle-214" stroke="#1C7FC3" mask="url(#mask-8)" stroke-width="4" xlink:href="#path-7"></use>
                        <use id="Rectangle-217-Copy-7" stroke="#76B2DB" mask="url(#mask-10)" stroke-width="2" fill="#E7F2F9" xlink:href="#path-9"></use>
                        <use id="Rectangle-217-Copy-8" stroke="#76B2DB" mask="url(#mask-12)" stroke-width="2" fill="#E7F2F9" xlink:href="#path-11"></use>
                    </g>
                    <g id="Page-1" transform="translate(77.781746, 77.781746) rotate(-315.000000) translate(-77.781746, -77.781746) translate(40.781746, 4.781746)">
                        <path d="M70.3243143,36.789048 C70.3243143,55.3640643 55.288219,70.4209783 36.7388857,70.4209783 C18.1895524,70.4209783 3.15345714,55.3640643 3.15345714,36.789048 C3.15345714,18.2140316 18.1895524,3.15711762 36.7388857,3.15711762 C55.288219,3.15711762 70.3243143,18.2140316 70.3243143,36.789048 Z" id="Stroke-1" stroke="#1D1C1B" stroke-width="1.789" stroke-linecap="round"></path>
                        <path d="M70.3243143,36.789048 C70.3243143,55.3640643 55.288219,70.4209783 36.7388857,70.4209783 C18.1895524,70.4209783 3.15345714,55.3640643 3.15345714,36.789048 C3.15345714,18.2140316 18.1895524,3.15711762 36.7388857,3.15711762 C55.288219,3.15711762 70.3243143,18.2140316 70.3243143,36.789048 Z" id="Stroke-1" stroke="#1D1C1B" stroke-width="1.789" stroke-linecap="round" fill-opacity="0.599581069" fill="#FFFFFF"></path>
                        <path d="M36.738181,142.675816 L36.738181,142.675816 C30.9838,142.675816 26.2759905,137.961488 26.2759905,132.19914 L26.2759905,93.824652 C26.2759905,88.0623037 30.9838,83.3515045 36.738181,83.3515045 L36.738181,83.3515045 C42.4925619,83.3515045 47.2003714,88.0623037 47.2003714,93.824652 L47.2003714,132.19914 C47.2003714,137.961488 42.4925619,142.675816 36.738181,142.675816 Z" id="Stroke-3" stroke="#1D1C1B" stroke-width="1.789" stroke-linecap="round"></path>
                        <mask id="mask-14" fill="white">
                            <use xlink:href="#path-13"></use>
                        </mask>
                        <g id="Clip-6"></g>
                        <polygon id="Stroke-5" stroke="#1D1C1B" stroke-linecap="round" mask="url(#mask-14)" points="33.095619 83.3493873 40.3828571 83.3493873 40.3828571 70.9989775 33.095619 70.9989775"></polygon>
                        <path d="M42.2649238,13.8804492 C52.5932095,16.3717033 60.2680667,25.6839123 60.2680667,36.7886951 C60.2680667,49.8024984 49.7318762,60.3497484 36.7395905,60.3497484 C28.6172095,60.3497484 21.4568286,56.2317689 17.2282571,49.964818" id="Stroke-7" stroke="#1D1C1B" stroke-width="0.812" stroke-linecap="round" mask="url(#mask-14)"></path>
                        <path d="M33.9349905,13.3920787 C34.8547048,13.2826893 35.7885143,13.2262303 36.7399429,13.2262303" id="Stroke-8" stroke="#1D1C1B" stroke-width="0.812" stroke-linecap="round" mask="url(#mask-14)"></path>
                        <path d="M13.2082952,36.789048 C13.2082952,30.7232324 15.4987714,25.1937775 19.2551524,21.0158102" id="Stroke-9" stroke="#1D1C1B" stroke-width="0.812" stroke-linecap="round" mask="url(#mask-14)"></path>
                    </g>
                </g>
            </g>
        </g>
    </g>
</svg>