<?xml version="1.0" standalone="no"?>
<!DOCTYPE svg PUBLIC "-//W3C//DTD SVG 1.1//EN" "http://www.w3.org/Graphics/SVG/1.1/DTD/svg11.dtd" >
<svg xmlns="http://www.w3.org/2000/svg">
<metadata>Generated by IcoMoon</metadata>
<defs>
<font id="iconfont" horiz-adv-x="1024">
<font-face units-per-em="1024" ascent="960" descent="-64" />
<missing-glyph horiz-adv-x="1024" />
<glyph unicode="&#x20;" horiz-adv-x="512" d="" />
<glyph unicode="&#xe000;" glyph-name="error" d="M554 384.667v256h-84v-256h84zM554 212.667v86h-84v-86h84zM512 852.667q176 0 301-125t125-301-125-301-301-125-301 125-125 301 125 301 301 125z" />
<glyph unicode="&#xe03f;" glyph-name="call" d="M282 478.667q96-186 282-282l94 94q20 20 44 10 72-24 152-24 18 0 30-12t12-30v-150q0-18-12-30t-30-12q-300 0-513 213t-213 513q0 18 12 30t30 12h150q18 0 30-12t12-30q0-80 24-152 8-26-10-44z" />
<glyph unicode="&#xe04c;" glyph-name="email" d="M854 596.667v86l-342-214-342 214v-86l342-212zM854 768.667q34 0 59-26t25-60v-512q0-34-25-60t-59-26h-684q-34 0-59 26t-25 60v512q0 34 25 60t59 26h684z" />
<glyph unicode="&#xe052;" glyph-name="location_on" d="M512 448.667q44 0 75 31t31 75-31 75-75 31-75-31-31-75 31-75 75-31zM512 852.667q124 0 211-87t87-211q0-62-31-142t-75-150-87-131-73-97l-32-34q-12 14-32 37t-72 92-91 134-71 147-32 144q0 124 87 211t211 87z" />
<glyph unicode="&#xe054;" glyph-name="chat_bubble" d="M854 852.667q34 0 59-25t25-59v-512q0-34-25-60t-59-26h-598l-170-170v768q0 34 25 59t59 25h684z" />
<glyph unicode="&#xe055;" glyph-name="chat_bubble_outline" d="M854 256.667v512h-684v-598l86 86h598zM854 852.667q34 0 59-25t25-59v-512q0-34-25-60t-59-26h-598l-170-170v768q0 34 25 59t59 25h684z" />
<glyph unicode="&#xe069;" glyph-name="add" d="M810 384.667h-256v-256h-84v256h-256v84h256v256h84v-256h256v-84z" />
<glyph unicode="&#xe06d;" glyph-name="archive" d="M218 724.667h588l-40 44h-512zM512 192.667l234 234h-148v86h-172v-86h-148zM876 714.667q20-24 20-54v-532q0-34-26-60t-60-26h-596q-34 0-60 26t-26 60v532q0 30 20 54l58 72q20 24 50 24h512q30 0 50-24z" />
<glyph unicode="&#xe070;" glyph-name="clear" d="M810 664.667l-238-238 238-238-60-60-238 238-238-238-60 60 238 238-238 238 60 60 238-238 238 238z" />
<glyph unicode="&#xe075;" glyph-name="drafts" d="M512 384.667l352 220-352 206-352-206zM938 596.667v-426q0-34-25-60t-59-26h-684q-34 0-59 26t-25 60v426q0 50 40 74l386 226 386-226q40-24 40-74z" />
<glyph unicode="&#xe07f;" glyph-name="remove" d="M810 384.667h-596v84h596v-84z" />
<glyph unicode="&#xe082;" glyph-name="reply" d="M426 554.667q208-30 321-159t149-311q-154 218-470 218v-174l-298 298 298 298v-170z" />
<glyph unicode="&#xe083;" glyph-name="reply_all" d="M554 554.667q208-30 321-159t149-311q-154 218-470 218v-174l-298 298 298 298v-170zM298 596.667l-170-170 170-170v-128l-298 298 298 298v-128z" />
<glyph unicode="&#xe0a3;" glyph-name="gps_fixed" d="M512 128.667q124 0 211 87t87 211-87 211-211 87-211-87-87-211 87-211 211-87zM894 468.667h88v-84h-88q-14-134-110-230t-230-110v-88h-84v88q-134 14-230 110t-110 230h-88v84h88q14 134 110 230t230 110v88h84v-88q134-14 230-110t110-230zM512 596.667q70 0 120-50t50-120-50-120-120-50-120 50-50 120 50 120 120 50z" />
<glyph unicode="&#xe0a4;" glyph-name="gps_not_fixed" d="M512 128.667q124 0 211 87t87 211-87 211-211 87-211-87-87-211 87-211 211-87zM894 468.667h88v-84h-88q-14-134-110-230t-230-110v-88h-84v88q-134 14-230 110t-110 230h-88v84h88q14 134 110 230t230 110v88h84v-88q134-14 230-110t110-230z" />
<glyph unicode="&#xe0da;" glyph-name="vpn_key" d="M298 340.667q34 0 60 26t26 60-26 60-60 26-59-26-25-60 25-60 59-26zM540 512.667h442v-172h-86v-170h-170v170h-186q-26-76-92-123t-150-47q-106 0-181 75t-75 181 75 181 181 75q84 0 150-47t92-123z" />
<glyph unicode="&#xe101;" glyph-name="folder" d="M426 768.667l86-86h342q34 0 59-26t25-60v-426q0-34-25-60t-59-26h-684q-34 0-59 26t-25 60v512q0 34 25 60t59 26h256z" />
<glyph unicode="&#xe10f;" glyph-name="keyboard_arrow_down" d="M316 604.667l196-196 196 196 60-60-256-256-256 256z" />
<glyph unicode="&#xe110;" glyph-name="keyboard_arrow_left" d="M658 252.667l-60-60-256 256 256 256 60-60-196-196z" />
<glyph unicode="&#xe111;" glyph-name="keyboard_arrow_right" d="M366 240.667l196 196-196 196 60 60 256-256-256-256z" />
<glyph unicode="&#xe112;" glyph-name="keyboard_arrow_up" d="M316 280.667l-60 60 256 256 256-256-60-60-196 196z" />
<glyph unicode="&#xe145;" glyph-name="camera_alt" d="M512 212.667q88 0 151 63t63 151-63 151-151 63-151-63-63-151 63-151 151-63zM384 852.667h256l78-84h136q34 0 59-26t25-60v-512q0-34-25-60t-59-26h-684q-34 0-59 26t-25 60v512q0 34 25 60t59 26h136zM376 426.667q0 56 40 96t96 40 96-40 40-96-40-96-96-40-96 40-40 96z" />
<glyph unicode="&#xe186;" glyph-name="image" d="M362 362.667l-148-192h596l-192 256-148-192zM896 128.667q0-34-26-60t-60-26h-596q-34 0-60 26t-26 60v596q0 34 26 60t60 26h596q34 0 60-26t26-60v-596z" />
<glyph unicode="&#xe1a8;" glyph-name="remove_red_eye" d="M512 554.667q52 0 90-38t38-90-38-90-90-38-90 38-38 90 38 90 90 38zM512 212.667q88 0 151 63t63 151-63 151-151 63-151-63-63-151 63-151 151-63zM512 746.667q158 0 286-88t184-232q-56-144-184-232t-286-88-286 88-184 232q56 144 184 232t286 88z" />
<glyph unicode="&#xe201;" glyph-name="arrow_drop_down" d="M298 512.667h428l-214-214z" />
<glyph unicode="&#xe203;" glyph-name="arrow_drop_up" d="M298 340.667l214 214 214-214h-428z" />
<glyph unicode="&#xe205;" glyph-name="cancel" d="M726 272.667l-154 154 154 154-60 60-154-154-154 154-60-60 154-154-154-154 60-60 154 154 154-154zM512 852.667q176 0 301-125t125-301-125-301-301-125-301 125-125 301 125 301 301 125z" />
<glyph unicode="&#xe206;" glyph-name="check" d="M384 248.667l452 452 60-60-512-512-238 238 60 60z" />
<glyph unicode="&#xe20e;" glyph-name="menu" d="M128 682.667h768v-86h-768v86zM128 384.667v84h768v-84h-768zM128 170.667v86h768v-86h-768z" />
<glyph unicode="&#xe20f;" glyph-name="keyboard_control" d="M512 512.667q34 0 60-26t26-60-26-60-60-26-60 26-26 60 26 60 60 26zM768 512.667q34 0 60-26t26-60-26-60-60-26-60 26-26 60 26 60 60 26zM256 512.667q34 0 60-26t26-60-26-60-60-26-60 26-26 60 26 60 60 26z" />
<glyph unicode="&#xe210;" glyph-name="more_vert" d="M512 256.667q34 0 60-26t26-60-26-60-60-26-60 26-26 60 26 60 60 26zM512 512.667q34 0 60-26t26-60-26-60-60-26-60 26-26 60 26 60 60 26zM512 596.667q-34 0-60 26t-26 60 26 60 60 26 60-26 26-60-26-60-60-26z" />
<glyph unicode="&#xe212;" glyph-name="unfold_less" d="M708 708.667l-196-196-196 196 60 60 136-136 136 136zM316 144.667l196 196 196-196-60-60-136 136-136-136z" />
<glyph unicode="&#xe213;" glyph-name="unfold_more" d="M512 162.667l136 136 60-60-196-196-196 196 60 60zM512 690.667l-136-136-60 60 196 196 196-196-60-60z" />
<glyph unicode="&#xe253;" glyph-name="person" d="M512 340.667q108 0 225-47t117-123v-86h-684v86q0 76 117 123t225 47zM512 426.667q-70 0-120 50t-50 120 50 121 120 51 120-51 50-121-50-120-120-50z" />
<glyph unicode="&#xe254;" glyph-name="mode_edit" d="M884 638.667l-78-78-160 160 78 78c16 16 44 16 60 0l100-100c16-16 16-44 0-60zM128 202.667l472 472 160-160-472-472h-160v160z" />
<glyph unicode="&#xe25c;" glyph-name="check_box" d="M426 212.667l384 384-60 62-324-324-152 152-60-60zM810 810.667q36 0 61-26t25-60v-596q0-34-25-60t-61-26h-596q-36 0-61 26t-25 60v596q0 34 25 60t61 26h596z" />
<glyph unicode="&#xe25d;" glyph-name="check_box_outline_blank" d="M810 810.667q34 0 60-26t26-60v-596q0-34-26-60t-60-26h-596q-34 0-60 26t-26 60v596q0 34 26 60t60 26h596zM810 724.667h-596v-596h596v596z" />
<glyph unicode="&#xe25e;" glyph-name="radio_button_unchecked" d="M512 84.667q140 0 241 101t101 241-101 241-241 101-241-101-101-241 101-241 241-101zM512 852.667q176 0 301-125t125-301-125-301-301-125-301 125-125 301 125 301 301 125z" />
<glyph unicode="&#xe25f;" glyph-name="radio_button_checked" d="M512 84.667q140 0 241 101t101 241-101 241-241 101-241-101-101-241 101-241 241-101zM512 852.667q176 0 301-125t125-301-125-301-301-125-301 125-125 301 125 301 301 125zM512 640.667q88 0 151-63t63-151-63-151-151-63-151 63-63 151 63 151 151 63z" />
<glyph unicode="&#xe260;" glyph-name="star" d="M512 202.667l-264-160 70 300-232 202 306 26 120 282 120-282 306-26-232-202 70-300z" />
<glyph unicode="&#xe261;" glyph-name="star_half" d="M512 260.667l160-98-42 182 142 124-188 16-72 172v-396zM938 522.667l-232-202 70-300-264 160-264-160 70 300-232 202 306 26 120 284 120-284z" />
<glyph unicode="&#xe262;" glyph-name="star_outline" d="M512 280.667l160-96-42 182 142 124-188 16-72 172-72-172-188-16 142-124-42-182zM938 544.667l-232-202 70-300-264 160-264-160 70 300-232 202 306 26 120 282 120-282z" />
<glyph unicode="&#xe267;" glyph-name="account_box" d="M256 212.667v-42h512v42q0 58-88 95t-168 37-168-37-88-95zM640 554.667q0 52-38 90t-90 38-90-38-38-90 38-90 90-38 90 38 38 90zM128 724.667q0 34 25 60t61 26h596q34 0 60-26t26-60v-596q0-34-26-60t-60-26h-596q-36 0-61 26t-25 60v596z" />
<glyph unicode="&#xe27b;" glyph-name="bookmark" d="M726 810.667q34 0 59-26t25-60v-682l-298 128-298-128v682q0 34 25 60t59 26h428z" />
<glyph unicode="&#xe27c;" glyph-name="bookmark_outline" d="M726 170.667v554h-428v-554l214 94zM726 810.667q34 0 59-26t25-60v-682l-298 128-298-128v682q0 34 25 60t59 26h428z" />
<glyph unicode="&#xe281;" glyph-name="check_circle" d="M426 212.667l384 384-60 62-324-324-152 152-60-60zM512 852.667q176 0 301-125t125-301-125-301-301-125-301 125-125 301 125 301 301 125z" />
<glyph unicode="&#xe291;" glyph-name="favorite" d="M512 28.667l-62 56q-106 96-154 142t-107 114-81 123-22 113q0 98 67 166t167 68q116 0 192-90 76 90 192 90 100 0 167-68t67-166q0-78-52-162t-113-146-199-186z" />
<glyph unicode="&#xe292;" glyph-name="favorite_outline" d="M516 146.667q96 86 142 130t100 104 75 106 21 90q0 64-43 106t-107 42q-50 0-93-28t-59-72h-80q-16 44-59 72t-93 28q-64 0-107-42t-43-106q0-44 21-90t75-106 100-104 142-130l4-4zM704 810.667q100 0 167-68t67-166q0-58-22-113t-81-123-107-114-154-142l-62-56-62 54q-138 124-199 186t-113 146-52 162q0 98 67 166t167 68q116 0 192-90 76 90 192 90z" />
<glyph unicode="&#xe298;" glyph-name="get_app" d="M214 170.667h596v-86h-596v86zM810 554.667l-298-298-298 298h170v256h256v-256h170z" />
<glyph unicode="&#xe29b;" glyph-name="help" d="M642 458.667q40 40 40 96 0 70-50 120t-120 50-120-50-50-120h84q0 34 26 60t60 26 60-26 26-60-26-60l-52-54q-50-54-50-120v-22h84q0 66 50 120zM554 128.667v84h-84v-84h84zM512 852.667q176 0 301-125t125-301-125-301-301-125-301 125-125 301 125 301 301 125z" />
<glyph unicode="&#xe2a2;" glyph-name="info" d="M554 554.667v86h-84v-86h84zM554 212.667v256h-84v-256h84zM512 852.667q176 0 301-125t125-301-125-301-301-125-301 125-125 301 125 301 301 125z" />
<glyph unicode="&#xe2ab;" glyph-name="lock" d="M644 596.667v86q0 54-39 93t-93 39-93-39-39-93v-86h264zM512 212.667q34 0 60 26t26 60-26 60-60 26-60-26-26-60 26-60 60-26zM768 596.667q34 0 60-25t26-59v-428q0-34-26-59t-60-25h-512q-34 0-60 25t-26 59v428q0 34 26 59t60 25h42v86q0 88 63 151t151 63 151-63 63-151v-86h42z" />
<glyph unicode="&#xe2c6;" glyph-name="report_problem" d="M554 340.667v172h-84v-172h84zM554 170.667v86h-84v-86h84zM42 42.667l470 810 470-810h-940z" />
<glyph unicode="&#xe2ca;" glyph-name="search" d="M406 340.667q80 0 136 56t56 136-56 136-136 56-136-56-56-136 56-136 136-56zM662 340.667l212-212-64-64-212 212v34l-12 12q-76-66-180-66-116 0-197 80t-81 196 81 197 197 81 196-81 80-197q0-104-66-180l12-12h34z" />
<glyph unicode="&#xe2df;" glyph-name="shopping_cart" d="M726 170.667q34 0 59-26t25-60-25-59-59-25-60 25-26 59 26 60 60 26zM42 852.667h140l40-84h632q18 0 30-13t12-31q0-10-6-20l-152-276q-24-44-74-44h-318l-38-70-2-6q0-10 10-10h494v-86h-512q-34 0-59 26t-25 60q0 20 10 40l58 106-154 324h-86v84zM298 170.667q34 0 60-26t26-60-26-59-60-25-59 25-25 59 25 60 59 26z" />
<glyph unicode="&#xe2fa;" glyph-name="verified_user" d="M426 212.667l342 342-60 60-282-280-110 110-60-60zM512 896.667l384-172v-256q0-178-110-325t-274-187q-164 40-274 187t-110 325v256z" />
<glyph unicode="&#xe306;" glyph-name="visibility" d="M512 554.667q52 0 90-38t38-90-38-90-90-38-90 38-38 90 38 90 90 38zM512 212.667q88 0 151 63t63 151-63 151-151 63-151-63-63-151 63-151 151-63zM512 746.667q158 0 286-88t184-232q-56-144-184-232t-286-88-286 88-184 232q56 144 184 232t286 88z" />
<glyph unicode="&#xe307;" glyph-name="visibility_off" d="M506 554.667h6q52 0 90-38t38-90v-8zM322 520.667q-24-48-24-94 0-88 63-151t151-63q46 0 94 24l-66 66q-16-4-28-4-52 0-90 38t-38 90q0 12 4 28zM86 756.667l54 54 756-756-54-54q-10 10-63 62t-81 80q-86-36-186-36-158 0-286 88t-184 232q50 124 160 212-24 24-67 68t-49 50zM512 640.667q-40 0-78-16l-92 92q78 30 170 30 158 0 285-88t183-232q-48-118-146-202l-124 124q16 38 16 78 0 88-63 151t-151 63z" />
<glyph unicode="&#xe30e;" glyph-name="camera_enhance" d="M512 212.667l-54 118-116 54 116 52 54 118 54-118 116-52-116-54zM512 170.667q88 0 151 63t63 151-63 150-151 62-151-62-63-150 63-151 151-63zM384 810.667h256l78-86h136q34 0 59-25t25-59v-512q0-34-25-60t-59-26h-684q-34 0-59 26t-25 60v512q0 34 25 59t59 25h136z" />
<glyph unicode="&#xe439;" glyph-name="add_a_photo" d="M418 340.667q0 58 40 98t96 40q58 0 98-40t40-98q0-56-40-96t-98-40-97 39-39 97zM554 128.667q88 0 151 62t63 150-63 151-151 63-150-63-62-151 62-150 150-62zM256 512.667v128h128v128h298l78-86h136q34 0 60-26t26-60v-512q0-34-26-59t-60-25h-682q-34 0-60 25t-26 59v428h128zM128 768.667v128h86v-128h128v-86h-128v-128h-86v128h-128v86h128z" />
<glyph unicode="&#xe600;" glyph-name="linkedin" d="M384 576h177.106v-90.782h2.532c24.64 44.194 84.958 90.782 174.842 90.782 186.946 0 221.52-116.376 221.52-267.734v-308.266h-184.61v273.278c0 65.184-1.334 149.026-96.028 149.026-96.148 0-110.82-70.986-110.82-144.292v-278.012h-184.542v576zM64 576h192v-576h-192v576zM256 736c0-53.019-42.981-96-96-96s-96 42.981-96 96c0 53.019 42.981 96 96 96s96-42.981 96-96z" />
<glyph unicode="&#xe601;" glyph-name="twitter" d="M1024 765.582c-37.676-16.708-78.164-28.002-120.66-33.080 43.372 26 76.686 67.17 92.372 116.23-40.596-24.078-85.556-41.56-133.41-50.98-38.32 40.83-92.922 66.34-153.346 66.34-116.022 0-210.088-94.058-210.088-210.078 0-16.466 1.858-32.5 5.44-47.878-174.6 8.764-329.402 92.4-433.018 219.506-18.084-31.028-28.446-67.116-28.446-105.618 0-72.888 37.088-137.192 93.46-174.866-34.438 1.092-66.832 10.542-95.154 26.278-0.020-0.876-0.020-1.756-0.020-2.642 0-101.788 72.418-186.696 168.522-206-17.626-4.8-36.188-7.372-55.348-7.372-13.538 0-26.698 1.32-39.528 3.772 26.736-83.46 104.32-144.206 196.252-145.896-71.9-56.35-162.486-89.934-260.916-89.934-16.958 0-33.68 0.994-50.116 2.94 92.972-59.61 203.402-94.394 322.042-94.394 386.422 0 597.736 320.124 597.736 597.744 0 9.108-0.206 18.168-0.61 27.18 41.056 29.62 76.672 66.62 104.836 108.748z" />
<glyph unicode="&#xe603;" glyph-name="google-plus" d="M559.066 896c0 0-200.956 0-267.94 0-120.12 0-233.17-91.006-233.17-196.422 0-107.726 81.882-194.666 204.088-194.666 8.498 0 16.756 0.17 24.842 0.752-7.93-15.186-13.602-32.288-13.602-50.042 0-29.938 16.104-54.21 36.468-74.024-15.386 0-30.242-0.448-46.452-0.448-148.782 0.002-263.3-94.758-263.3-193.020 0-96.778 125.542-157.314 274.334-157.314 169.624 0 263.306 96.244 263.306 193.028 0 77.6-22.896 124.072-93.686 174.134-24.216 17.144-70.53 58.836-70.53 83.344 0 28.72 8.196 42.868 51.428 76.646 44.312 34.624 75.672 83.302 75.672 139.916 0 67.406-30.020 133.098-86.372 154.772h84.954l59.96 43.344zM465.48 240.542c2.126-8.972 3.284-18.206 3.284-27.628 0-78.2-50.392-139.31-194.974-139.31-102.842 0-177.116 65.104-177.116 143.3 0 76.642 92.126 140.444 194.964 139.332 24-0.254 46.368-4.116 66.67-10.69 55.826-38.826 95.876-60.762 107.172-105.004zM300.818 532.224c-69.038 2.064-134.636 77.226-146.552 167.86-11.916 90.666 34.37 160.042 103.388 157.99 69.010-2.074 134.638-74.814 146.558-165.458 11.906-90.66-34.39-162.458-103.394-160.392zM832 704v192h-64v-192h-192v-64h192v-192h64v192h192v64z" />
<glyph unicode="&#xe61e;" glyph-name="uniE61E" horiz-adv-x="2048" d="M1672.876 325.197c0 7.97 5.804 13.764 13.048 13.764 7.98 0 13.772-5.802 13.772-13.764 0-7.254-5.804-13.78-13.772-13.78-7.244 0-13.048 6.538-13.048 13.78v0zM1685.922 315.051c5.804 0 10.872 4.352 10.872 10.146s-5.076 10.146-10.872 10.146c-5.076 0-10.146-4.352-10.146-10.146s5.076-10.146 10.146-10.146v0zM1684.472 319.403h-2.902v11.596h5.076c0.734 0 2.176 0 2.902 0 1.452-0.734 1.452-2.184 1.452-3.634 0-0.716-0.718-2.168-2.176-2.9l2.902-5.068h-3.626l-1.452 4.352h-2.176v-4.342 6.52h1.452c0.724 0 1.46 0 1.46 0.734 0.718 0 0.718 0.716 0.718 1.452 0 0 0 0.716-0.718 0.716 0 0.734-0.734 0-1.46 0h-1.452v-9.422zM620.374 681.559l-129.382-349.014-13.884 70.904c-31.284 84.702-92.204 161.98-183.050 213.77l118.314-447.002 139.896 0.018 208.102 511.326h-139.998zM731.222 170.009l82.688 511.984h132.284l-82.748-511.984h-132.224zM1343.010 669.371c-26.164 10.368-67.378 21.582-118.452 21.582-130.816 0-222.736-69.47-223.514-168.848-0.836-73.778 65.716-114.748 115.796-139.314 51.532-25.072 68.788-41.148 68.582-63.566-0.434-34.168-41.25-49.766-79.232-49.766-52.788 0-80.948 7.602-124.236 26.836l-17.168 8.014-18.466-114.5c30.882-14.464 87.936-26.668 147.338-27.434 138.82 0 229.052 68.754 230.134 175.002 0.58 58.334-34.748 102.612-111.13 139.154-46.046 23.68-74.65 39.38-74.198 63.454 0.102 21.266 23.952 43.98 75.854 43.98 43.23 0.888 74.334-9.114 98.918-19.668l11.768-5.932 18.006 111.010zM1681.93 681.523h-102.084c-31.684 0-55.382-9.216-69.384-42.486l-196.25-469.102h138.932c0 0 22.7 63.036 27.786 76.918 15.198 0 149.982-0.264 169.2-0.264 4.086-17.938 16.172-76.646 16.172-76.646h122.752l-107.118 511.582zM1518.942 351.557c11.068 29.346 52.72 143.070 52.72 143.070-0.836-1.382 10.752 29.712 17.586 48.87l8.816-44.254c0 0 25.404-122.13 30.634-147.686-20.54 0-83.924 0-109.756 0zM370.978 690.279h-213.222l-1.204-8.798c165.716-42.318 275.082-146.604 320.546-269.586l-46.25 235.196c-7.928 32.554-31.156 42-59.87 43.188z" />
<glyph unicode="&#xe61f;" glyph-name="uniE61F" horiz-adv-x="2048" d="M1285.23 844.759c16.724 0 33.452 0 50.176 0 1.102-0.29 2.184-0.734 3.302-0.852 10.846-1.17 21.77-1.826 32.528-3.474 88.302-13.474 165.632-50.356 229.044-113.152 104.388-103.374 145.51-229.18 123.7-374.178-14.046-93.372-56.884-173.286-125.942-237.756-98.382-91.87-215.364-128.658-348.664-110.84-76.782 10.256-145.008 41.532-204.8 90.924-5.35 4.428-10.574 8.994-15.94 13.558-0.896-0.674-1.604-1.144-2.228-1.69-64.212-57.078-138.684-91.99-223.932-103.612-47.25-6.434-94.294-4.948-140.902 4.976-92.298 19.662-169.644 65.246-231.492 136.404-56.576 65.1-89.932 140.826-100.394 226.534-1.008 8.208-1.946 16.428-2.91 24.644 0 17.068 0 34.132 0 51.2 0.316 1.452 0.734 2.884 0.93 4.352 2.218 17.068 3.422 34.32 6.75 51.166 18.868 95.444 64.948 175.522 138.318 239.386 64.24 55.92 138.966 89.028 223.606 99.474 8.208 1.014 16.428 1.954 24.636 2.928 17.068 0 34.134 0 51.2 0 0.914-0.29 1.808-0.742 2.748-0.854 9.822-1.058 19.702-1.75 29.482-3.132 80.938-11.452 152.242-44.332 214.63-96.914 3.2-2.698 6.366-5.444 9.55-8.176 4.146 3.618 7.834 6.912 11.606 10.096 63.728 53.812 136.942 85.914 219.76 96.060 8.414 1.042 16.828 1.964 25.242 2.928zM402.952 525.159c-11.826-71.218-23.552-141.824-35.32-212.692 14.096 0 27.82 0 41.718 0 9.028 53.342 18.004 106.384 26.982 159.428 0.282-0.044 0.556-0.084 0.828-0.138 1.194-53.112 2.39-106.224 3.594-159.642 9.216 0 17.74 0.222 26.25-0.102 3.78-0.144 5.198 1.288 6.392 4.676 15.564 43.998 31.284 87.946 46.976 131.9 3.054 8.56 6.178 17.092 9.268 25.634 0.206-0.076 0.41-0.154 0.624-0.23-8.524-53.77-17.042-107.546-25.608-161.654 15.19 0 29.636 0 44.628 0 11.784 70.928 23.552 141.748 35.346 212.752-1.246 0.172-1.91 0.334-2.568 0.334-21.504 0.018-43.008-0.068-64.512 0.12-3.472 0.026-4.258-1.758-5.102-4.352-9.294-28.5-18.638-56.986-27.964-85.478-4.48-13.68-8.976-27.34-13.466-41.012-0.264 0.052-0.528 0.11-0.794 0.162-0.742 43.366-1.486 86.734-2.236 130.294-21.854 0-43.264 0-65.034 0zM1633.51 465.451c-0.794 0.256-1.008 0.264-1.108 0.368-0.674 0.768-1.324 1.552-1.988 2.33-10 11.742-21.94 19.84-37.972 20.404-18.842 0.656-34.006-7.466-45.704-21.222-28.622-33.68-37.366-72.934-26.538-115.294 11.186-43.742 56.38-56.132 89.942-26.034 0.718 0.65 1.528 1.196 2.866 2.226-0.656-5.716-1.23-10.684-1.808-15.754 14.404 0 28.298 0 42.384 0 11.554 71.014 23.048 141.706 34.612 212.746-15.276 0-29.712 0-44.622 0-1.69-9.984-3.362-19.856-5.018-29.73-1.682-9.9-3.328-19.798-5.042-30.036zM694.74 312.295c2.15 15.37 4.156 30.192 6.316 44.996 3.652 25.106 8.278 50.108 10.898 75.324 3.362 32.274-14.182 52.488-46.268 55.954-19.626 2.116-38.674-0.742-57.736-5.052-7.194-1.62-11.058-4.266-11.664-12.228-0.726-9.584-2.952-19.056-4.692-29.576 3.278 0.854 5.674 1.392 8.020 2.092 17.578 5.248 35.568 6.426 53.65 4.318 14.592-1.698 20.020-12.578 14.114-25.242-10.35 0-20.386 0.394-30.38-0.102-11.99-0.59-23.552-3.456-34.398-8.832-28.194-13.97-36.838-42.846-32.384-69.326 2.816-16.708 11.486-29.798 28.604-33.802 20.574-4.804 39.62-0.496 55.212 14.822 1.152 1.134 1.87 2.714 2.79 4.096 0.366-0.332 0.734-0.658 1.092-0.98 0-5.462 0-10.914 0-16.47 12.432 0.010 24.508 0.010 36.83 0.010zM1412.156 312.277c1.844 13.082 3.55 25.746 5.426 38.374 1.894 12.808 4.174 25.566 5.872 38.408 2.22 16.87 5.154 33.758 5.734 50.704 0.896 25.95-13.594 42.676-39.194 47.666-21.932 4.274-43.376 0.87-64.802-4.070-6.784-1.562-10.444-4.096-11.042-11.648-0.778-9.762-2.978-19.406-4.616-29.424 1.298 0 1.962-0.11 2.576 0.026 1.324 0.298 2.628 0.7 3.916 1.108 18.192 5.846 36.89 6.878 55.636 4.54 14.464-1.8 19.226-12.526 12.8-25.106-10.18 0-20.062 0.394-29.884-0.102-11.826-0.596-23.202-3.506-33.946-8.688-35.328-17.050-39.090-58.548-29.066-81.46 4.83-11.052 12.954-19.26 24.84-21.82 20.906-4.49 39.97-0.434 55.68 15.070 1.084 1.068 2.134 2.158 3.644 3.686 0-6.426 0-11.802 0-17.27 12.27 0 24.182 0 36.42 0zM1047.212 383.797c3.942 15.206 6 30.124 5.794 45.396-0.556 41.694-31.572 66.604-73.48 59.648-24.558-4.070-41.106-19.772-52.438-41.062-13.158-24.73-16.972-51.412-13.090-78.916 4.966-35.158 24.082-54.264 58.35-59.324 19.15-2.832 38.042-0.624 56.806 3.822 5.658 1.34 8.576 3.686 8.558 9.668-0.010 2.85 0.972 5.7 1.442 8.558 1.434 8.772 2.842 17.552 4.362 26.94-2.022-0.914-3.242-1.52-4.48-2.038-19.524-8.236-39.688-11.178-60.484-6.246-14.346 3.388-21.836 13.764-21.922 28.202-0.026 4.302 1.424 5.478 5.624 5.452 26.446-0.172 52.89-0.086 79.342-0.086 1.826-0.018 3.67-0.018 5.616-0.018zM1298.22 473.267c2.534 14.618 5.076 28.818 7.314 43.076 0.18 1.126-1.476 3.312-2.722 3.754-6.084 2.176-12.254 4.182-18.5 5.786-41.43 10.624-77.038 0.862-102.886-33.698-28.262-37.802-33.988-81.246-23.33-126.446 6.894-29.244 25.344-48.98 55.492-56.020 19.362-4.514 38.298-1.16 57.038 3.942 1.134 0.308 2.314 2.304 2.56 3.668 1.8 9.89 3.378 19.822 5 29.746 0.768 4.71 1.484 9.428 2.22 14.096-9.522-3.004-18.116-6.452-27.034-8.37-26.734-5.778-47.25 7.996-52.164 34.748-3.524 19.2-1.604 38.084 5.222 56.31 13.654 36.386 43.204 49.272 79.222 34.808 4.070-1.654 8.074-3.474 12.57-5.402zM830.362 484.967c-0.572 0.486-0.802 0.846-1.076 0.888-20.446 3.15-40.952 5.504-61.518 1.28-37.582-7.706-56.884-46.892-39.5-80.026 6.34-12.082 17.152-19.088 28.894-24.994 4.874-2.442 9.77-4.846 14.532-7.492 5.326-2.952 7.602-7.518 6.768-13.678-0.812-5.922-4.19-9.762-9.712-11.274-4.558-1.254-9.422-2.576-14.028-2.236-14.198 1.058-28.338 2.894-43.058 4.49-1.808-10.89-3.942-23.116-5.7-35.396-0.136-0.938 2.168-3.004 3.592-3.302 20.676-4.318 41.566-5.478 62.532-2.866 14.268 1.774 27.826 5.88 37.778 17.196 24.218 27.51 14.38 72.116-19.216 87.894-5.384 2.534-11.018 4.812-15.822 8.208-2.688 1.904-5.076 5.692-5.582 8.952-1.246 8.004 3.158 13.456 12.066 14.574 7.714 0.974 15.626 0.716 23.432 0.572 6.39-0.12 12.766-0.88 19.312-1.358 2.176 13.312 4.258 26.044 6.306 38.572zM902.724 351.027c-3.132 0-5.65-0.018-8.158 0-2.552 0.018-5.12-0.068-7.672 0.102-7.672 0.52-11.11 4.036-11.342 11.622-0.068 2.21 0 4.454 0.366 6.622 3.952 23.338 8.038 46.668 11.914 70.024 0.512 3.072 1.75 3.908 4.658 3.832 6.28-0.178 12.57-0.050 19.226-0.050 1.928 14.208 3.788 27.972 5.75 42.436-7.876 0-15.266 0-23.108 0 1.69 9.010 3.25 17.322 4.908 26.146-14.422 0-28.382 0.094-42.326-0.188-1.006-0.018-2.568-2.68-2.842-4.284-7.168-42.846-14.31-85.692-21.172-128.588-1.876-11.742-4.122-23.646-3.968-35.448 0.308-22.904 13.568-35.082 36.386-34.774 6.928 0.094 13.824 1.69 20.762 2.398 8.158 0.828 12.562 4.336 12.902 13.356 0.324 8.908 2.38 17.75 3.712 26.794zM1052.74 312.123c14.548 0 28.672-0.086 42.804 0.162 1.076 0.018 2.842 2.142 3.072 3.5 2.952 17.126 5.188 34.39 8.602 51.414 3.5 17.51 7.636 34.918 12.366 52.13 3.072 11.196 10.59 18.132 23.194 17.586 0.266-0.010 0.556 0.316 0.648 0.376 2.458 8.49 4.548 16.93 7.374 25.114 2.798 8.124 6.34 16 9.712 24.37-21.53 2.918-31.566-11.844-42.452-25.95 1.22 8.072 2.432 16.154 3.652 24.226-14.132 0-27.51 0-40.884 0-9.37-57.746-18.68-115.062-28.084-172.928zM1517.304 436.633c5.878 17.068 11.588 33.646 17.314 50.27-20.838 2.798-30.77-12.032-41.694-25.872 1.22 8.004 2.424 16 3.712 24.414-1.988 0.162-3.472 0.368-4.958 0.376-10.412 0.026-20.814-0.12-31.214 0.084-3.644 0.076-4.874-1.058-5.452-4.762-7.236-46.454-14.686-92.886-22.058-139.324-1.546-9.712-3.004-19.422-4.574-29.688 14.48 0 28.442-0.086 42.384 0.178 0.972 0.018 2.518 2.39 2.766 3.84 3.25 18.978 5.846 38.076 9.566 56.952 3.098 15.676 6.93 31.258 11.478 46.566 3.2 10.778 10.274 18.15 22.732 16.964zM1622.946 409.413c-0.596-11.698-2.014-23.22-7.066-33.826-2.526-5.298-5.786-10.514-9.754-14.798-7.278-7.86-16.666-10.486-27.058-7.33-9.744 2.962-13.576 11.068-15.070 20.13-2.798 16.98-1.392 33.74 5.982 49.424 2.688 5.71 6.69 11.17 11.222 15.564 11.196 10.854 35.286 11.016 39.85-12.978 1.024-5.326 1.288-10.794 1.894-16.188zM661.794 389.283c-0.572-14.294-3.634-27.222-14.686-36.958-6.092-5.366-13.424-7.236-21.384-6.212-5.486 0.708-9.318 3.788-11.324 9.062-4.106 10.786 0.58 24.124 10.744 29.568 11.442 6.126 23.706 6.322 36.65 4.54zM1379.61 389.273c-0.538-13.678-3.644-25.924-13.474-35.576-5.888-5.786-13.082-8.354-21.366-7.73-7.536 0.572-13.006 5.514-14.336 12.946-1.998 11.178 3.21 21.922 13.44 26.668 11.316 5.248 23.236 5.462 35.738 3.696zM960.964 419.303c2.86 21.948 17.314 33.946 33.75 30.754 9.472-1.834 15.096-7.612 16.154-17.238 0.47-4.344 0.076-8.782 0.076-13.516-16.75 0-33.356 0-49.98 0z" />
<glyph unicode="&#xe629;" glyph-name="uniE629" horiz-adv-x="2048" d="M322.158 672.735h-143.658c-9.838 0-18.202-7.142-19.722-16.862l-58.112-368.358c-1.162-7.27 4.472-13.842 11.844-13.842h68.59c9.822 0 18.176 7.15 19.722 16.862l15.668 99.37c1.51 9.736 9.89 16.862 19.712 16.862h45.474c94.634 0 149.248 45.79 163.508 136.55 6.434 39.698 0.282 70.904-18.312 92.74-20.42 23.988-56.636 36.676-104.712 36.676zM338.73 538.189c-7.85-51.55-47.25-51.55-85.324-51.55h-21.682l15.206 96.264c0.906 5.82 5.948 10.112 11.828 10.112h9.94c25.94 0 50.416 0 63.052-14.788 7.544-8.822 9.856-21.93 6.98-40.038zM751.59 539.845h-68.804c-5.87 0-10.924-4.274-11.818-10.102l-3.054-19.234-4.812 6.964c-14.89 21.616-48.102 28.842-81.246 28.842-76.014 0-140.954-57.574-153.592-138.36-6.58-40.294 2.774-78.806 25.626-105.66 20.958-24.722 50.962-34.996 86.648-34.996 61.252 0 95.222 39.374 95.222 39.374l-3.072-19.124c-1.16-7.304 4.472-13.858 11.802-13.858h61.962c9.846 0 18.176 7.15 19.73 16.886l37.172 235.442c1.202 7.246-4.412 13.824-11.76 13.824zM655.684 405.957c-6.64-39.304-37.828-65.69-77.62-65.69-19.976 0-35.942 6.408-46.198 18.544-10.164 12.066-14.028 29.202-10.794 48.324 6.196 38.98 37.914 66.236 77.1 66.236 19.524 0 35.414-6.494 45.876-18.738 10.486-12.366 14.644-29.636 11.64-48.674zM1117.962 539.845h-69.146c-6.578 0-12.8-3.276-16.528-8.754l-95.35-140.442-40.422 134.962c-2.534 8.44-10.318 14.234-19.14 14.234h-67.924c-8.27 0-13.986-8.054-11.358-15.828l76.134-223.462-71.596-101.052c-5.624-7.962 0.044-18.918 9.77-18.918h69.060c6.538 0 12.682 3.208 16.4 8.586l229.93 331.878c5.512 7.936-0.154 18.798-9.83 18.798zM1346.85 672.735h-143.692c-9.796 0-18.176-7.142-19.712-16.862l-58.112-368.358c-1.162-7.27 4.48-13.842 11.81-13.842h73.728c6.852 0 12.706 5.010 13.78 11.81l16.494 104.414c1.528 9.736 9.89 16.862 19.702 16.862h45.45c94.66 0 149.266 45.79 163.532 136.55 6.442 39.698 0.248 70.904-18.338 92.74-20.378 23.996-56.568 36.686-104.644 36.686zM1363.404 538.189c-7.834-51.55-47.214-51.55-85.334-51.55h-21.658l15.232 96.264c0.914 5.82 5.896 10.112 11.802 10.112h9.932c25.924 0 50.414 0 63.086-14.788 7.518-8.822 9.806-21.93 6.938-40.038zM1776.23 539.845h-68.752c-5.914 0-10.932-4.274-11.802-10.102l-3.046-19.234-4.82 6.964c-14.898 21.616-48.076 28.842-81.238 28.842-76.022 0-140.92-57.574-153.584-138.36-6.554-40.294 2.782-78.806 25.626-105.66 21-24.722 50.952-34.996 86.646-34.996 61.26 0 95.198 39.374 95.198 39.374l-3.056-19.124c-1.144-7.304 4.472-13.858 11.836-13.858h61.952c9.806 0 18.166 7.15 19.722 16.886l37.188 235.442c1.126 7.246-4.49 13.824-11.87 13.824zM1680.334 405.957c-6.588-39.304-37.82-65.69-77.612-65.69-19.942 0-35.942 6.408-46.2 18.544-10.146 12.066-13.986 29.202-10.786 48.324 6.222 38.98 37.888 66.236 77.082 66.236 19.532 0 35.396-6.494 45.876-18.738 10.538-12.366 14.686-29.636 11.638-48.674zM1857.324 662.621l-58.948-375.108c-1.144-7.27 4.472-13.842 11.81-13.842h59.272c9.846 0 18.202 7.15 19.712 16.862l58.164 368.376c1.152 7.27-4.472 13.842-11.802 13.842h-66.382c-5.862-0.016-10.906-4.31-11.826-10.13z" />
<glyph unicode="&#xe800;" glyph-name="facebook" d="M575.87-64h-191.87v512h-128v176.45l128 0.058-0.208 103.952c0 143.952 39.034 231.54 208.598 231.54h141.176v-176.484h-88.23c-66.032 0-69.206-24.656-69.206-70.684l-0.262-88.324h158.69l-18.704-176.45-139.854-0.058-0.13-512z" />
<glyph unicode="&#xe801;" glyph-name="descargar" d="M710.4 448c0-64-51.2-115.2-115.2-115.2h-160c-70.4 0-121.6 51.2-121.6 115.2v396.8c0 64 51.2 115.2 115.2 115.2h160c64 0 115.2-51.2 115.2-115.2v-396.8zM601.6 211.2c-89.6-89.6-83.2-89.6-172.8 0l-256 256c-51.2 51.2-44.8 57.6 12.8 57.6h652.8c51.2 0 64-6.4 19.2-57.6l-256-256zM947.2 211.2v-160c0-19.2-19.2-38.4-38.4-38.4h-793.6c-19.2 0-38.4 19.2-38.4 38.4v160h-76.8v-160c0-64 51.2-115.2 115.2-115.2h787.2c64 0 115.2 51.2 115.2 115.2v160h-70.4z" />
<glyph unicode="&#xe802;" glyph-name="medalla-premium" d="M370.432 275.2l-104.704-186.368 104.192 30.72 68.864-111.872 77.056 241.92c-23.808 13.056-47.616 5.632-71.68-22.528-32.512-38.144-53.504-32.256-63.488 17.92-2.56 12.032-5.888 22.016-10.24 30.208zM502.272 242.944l56.064-306.944 99.072 107.776 107.776-56.832-101.632 299.008c-9.472-9.472-16.128-24.064-20.224-43.776-9.984-50.176-30.976-56.32-63.488-17.92-25.856 30.208-51.712 36.608-77.568 18.688zM708.864 354.048c-46.336 16.128-74.496-1.024-84.48-51.2s-31.232-56.064-63.744-17.92c-32.512 38.4-64.768 38.4-97.28 0-32.512-38.144-53.76-32.256-63.744 17.92s-38.144 67.328-84.48 51.2c-46.336-15.872-61.696 0.256-46.592 49.152 15.36 48.64-1.024 78.336-48.64 88.576-47.872 10.496-53.504 32.768-17.152 67.072 36.352 34.048 36.352 68.352 0 102.4-36.352 34.304-30.72 56.576 17.152 67.072 47.616 10.496 64 39.936 48.64 88.576-15.104 48.896 0.256 65.28 46.592 49.152s74.496 1.024 84.48 51.2c9.984 50.176 31.232 56.064 63.744 17.92s64.768-38.144 97.28 0c32.512 38.144 53.76 32.256 63.744-17.92s38.144-67.328 84.48-51.2c46.336 16.128 61.696-0.256 46.592-49.152-15.36-48.64 1.024-78.080 48.64-88.576 47.872-10.496 53.504-32.768 17.152-67.072-36.352-34.048-36.352-68.352 0-102.4 36.352-34.304 30.72-56.576-17.152-67.072-47.616-10.24-64-39.936-48.64-88.576 15.104-48.896-0.256-65.024-46.592-49.152z" />
<glyph unicode="&#xe803;" glyph-name="pago-seguro" d="M940.8 761.6c-6.4 6.4-19.2 12.8-32 12.8-96 0-211.2 102.4-288 140.8-44.8 25.6-76.8 38.4-102.4 44.8 0 0-6.4 0-6.4 0s-6.4 0-6.4 0c-25.6-6.4-57.6-19.2-102.4-44.8-83.2-38.4-198.4-134.4-294.4-134.4-12.8 0-25.6-6.4-32-12.8-6.4-12.8-6.4-25.6-6.4-38.4 19.2-396.8 166.4-646.4 422.4-787.2 6.4-6.4 12.8-6.4 19.2-6.4s12.8 0 19.2 6.4c256 140.8 403.2 390.4 422.4 787.2 0 12.8 0 25.6-12.8 32zM716.8 627.2l-230.4-339.2c-6.4-12.8-19.2-19.2-25.6-19.2-12.8 0-19.2 6.4-32 12.8l-134.4 140.8c-6.4 6.4-6.4 25.6 0 32l32 32c6.4 6.4 25.6 6.4 32 0l89.6-89.6 192 281.6c6.4 12.8 19.2 12.8 32 6.4l38.4-25.6c6.4-6.4 12.8-19.2 6.4-32z" />
<glyph unicode="&#xe80d;" glyph-name="share" d="M768 252.667c68 0 124-56 124-124s-56-126-124-126-124 58-124 126c0 10 0 20 2 28l-302 176c-24-22-54-34-88-34-70 0-128 58-128 128s58 128 128 128c34 0 64-12 88-34l300 174c-2 10-4 20-4 30 0 70 58 128 128 128s128-58 128-128-58-128-128-128c-34 0-64 14-88 36l-300-176c2-10 4-20 4-30s-2-20-4-30l304-176c22 20 52 32 84 32z" />
<glyph unicode="&#xe901;" glyph-name="alimentacion" d="M656 694.4c115.2 0 252.8-144 252.8-323.2s-172.8-371.2-265.6-371.2c-16 0-25.6 6.4-35.2 16-22.4 25.6-57.6 41.6-92.8 41.6s-70.4-16-92.8-41.6c-9.6-12.8-22.4-16-35.2-16-99.2 0-272 192-272 371.2 0 83.2 32 166.4 83.2 230.4 48 57.6 112 92.8 169.6 92.8 35.2 0 70.4-12.8 99.2-41.6l41.6-38.4 41.6 38.4c35.2 28.8 67.2 41.6 105.6 41.6zM656 758.4c-48 0-99.2-19.2-144-57.6-44.8 41.6-92.8 57.6-144 57.6-160 0-316.8-182.4-316.8-387.2 0-201.6 192-435.2 332.8-435.2 32 0 60.8 12.8 83.2 38.4 12.8 12.8 28.8 19.2 44.8 19.2s35.2-6.4 44.8-19.2c22.4-25.6 51.2-38.4 83.2-38.4 140.8 0 332.8 233.6 332.8 435.2 0 204.8-160 387.2-316.8 387.2v0zM512 742.4c-3.2 0-3.2 0-6.4 0-16 3.2-28.8 19.2-25.6 38.4 3.2 9.6 12.8 86.4-67.2 121.6-16 6.4-22.4 25.6-16 41.6s25.6 22.4 41.6 16c105.6-44.8 115.2-144 105.6-192-3.2-16-16-25.6-32-25.6zM256 332.8c-19.2 0-35.2 6.4-51.2 16-48 38.4-38.4 128 22.4 204.8s147.2 105.6 195.2 67.2c19.2-16 32-41.6 32-73.6 0-9.6-6.4-16-16-16s-16 6.4-16 16c0 16-3.2 35.2-19.2 48-32 25.6-102.4-3.2-150.4-64s-60.8-134.4-25.6-160c12.8-9.6 32-9.6 44.8-9.6 6.4 6.4 16 0 16-9.6s-3.2-16-12.8-19.2c-6.4 0-12.8 0-19.2 0zM380.8 384c-3.2 0-6.4 0-9.6 3.2-6.4 6.4-9.6 16-3.2 22.4 12.8 19.2 25.6 38.4 35.2 57.6 3.2 9.6 12.8 12.8 19.2 9.6 9.6-3.2 12.8-12.8 9.6-19.2-9.6-22.4-22.4-44.8-38.4-67.2-3.2-3.2-6.4-6.4-12.8-6.4zM665.6 928v0c38.4 0 76.8-19.2 99.2-32-22.4-22.4-57.6-51.2-102.4-57.6-3.2 0-9.6 0-12.8 0-38.4 0-76.8 19.2-99.2 32 22.4 22.4 57.6 51.2 102.4 57.6 3.2 0 6.4 0 12.8 0zM665.6 960c-6.4 0-9.6 0-16 0-86.4-9.6-147.2-96-147.2-96s67.2-60.8 147.2-60.8c6.4 0 9.6 0 16 0 83.2 9.6 144 92.8 144 92.8s-67.2 64-144 64v0z" />
<glyph unicode="&#xe902;" glyph-name="belleza" d="M652.8 896v-345.6h-281.6v153.6c0 108.8 86.4 195.2 195.2 195.2h86.4zM713.6 960h-150.4c-140.8 0-256-115.2-256-256v-214.4h406.4v470.4zM700.8 486.4v-486.4h-377.6v486.4h377.6zM764.8 550.4h-505.6v-614.4h502.4v614.4h3.2zM563.2 380.8h-256c-9.6 0-16 6.4-16 16s6.4 16 16 16h256c9.6 0 16-6.4 16-16s-6.4-16-16-16zM563.2 707.2c-3.2 0-9.6 3.2-12.8 6.4-6.4 6.4-6.4 16 0 22.4 9.6 9.6 16 19.2 25.6 28.8 6.4 6.4 16 9.6 22.4 3.2s9.6-16 3.2-22.4c-9.6-12.8-19.2-22.4-28.8-32-3.2-3.2-6.4-6.4-9.6-6.4zM460.8 659.2c-22.4 0-38.4 6.4-54.4 19.2-9.6 9.6-12.8 19.2-16 32-3.2 9.6 3.2 16 12.8 19.2s16-3.2 19.2-12.8c0-6.4 3.2-12.8 9.6-16 12.8-12.8 41.6-12.8 73.6 0 6.4 3.2 16 0 22.4-6.4 3.2-6.4 0-16-6.4-22.4-22.4-6.4-41.6-12.8-60.8-12.8z" />
<glyph unicode="&#xe903;" glyph-name="bolsos" d="M684.8 614.4c108.8 0 201.6-80 217.6-188.8l51.2-371.2c3.2-19.2-6.4-32-12.8-38.4s-16-16-35.2-16h-790.4c-19.2 0-32 9.6-35.2 16-6.4 6.4-12.8 19.2-12.8 38.4l51.2 371.2c16 105.6 108.8 188.8 217.6 188.8h348.8zM684.8 681.6h-352c-140.8 0-262.4-105.6-281.6-243.2l-51.2-371.2c-9.6-70.4 44.8-131.2 115.2-131.2h793.6c70.4 0 121.6 60.8 112 131.2l-51.2 371.2c-22.4 137.6-140.8 243.2-284.8 243.2v0zM857.6 80h-684.8c-12.8 0-22.4 6.4-32 12.8-6.4 9.6-12.8 22.4-9.6 32l22.4 156.8c0 6.4 9.6 12.8 16 12.8s12.8-9.6 12.8-16l-22.4-153.6c0-3.2 0-6.4 3.2-9.6s6.4-3.2 9.6-3.2h684.8c6.4 0 12.8-6.4 12.8-12.8s-3.2-19.2-12.8-19.2zM694.4 428.8c-19.2 0-32 16-32 32v240c0 131.2-57.6 195.2-176 195.2s-172.8-64-172.8-195.2v-236.8c0-19.2-16-32-32-32s-32 16-32 32v236.8c0 169.6 86.4 262.4 240 262.4s240-92.8 240-262.4v-236.8c0-19.2-16-35.2-35.2-35.2zM268.8 332.8c-9.6 0-16 6.4-16 16s6.4 16 16 16c54.4 0 99.2 44.8 99.2 99.2 0 9.6 6.4 16 16 16s16-6.4 16-16c3.2-73.6-57.6-131.2-131.2-131.2zM707.2 332.8c-73.6 0-131.2 60.8-131.2 131.2 0 9.6 6.4 16 16 16s16-6.4 16-16c0-54.4 44.8-99.2 99.2-99.2 9.6 0 16-6.4 16-16s-9.6-16-16-16z" />
<glyph unicode="&#xe904;" glyph-name="componentes" d="M377.6 604.8h-128c-19.2 0-32 12.8-32 32v272c0 19.2 12.8 32 32 32h124.8c19.2 0 32-12.8 32-32v-272c3.2-19.2-12.8-32-28.8-32zM281.6 668.8h60.8v208h-60.8v-208zM787.2 604.8h-134.4c-19.2 0-32 12.8-32 32v272c0 19.2 12.8 32 32 32h134.4c19.2 0 32-12.8 32-32v-272c0-19.2-12.8-32-32-32zM688 668.8h70.4v208h-70.4v-208zM592 166.4h-140.8c-198.4 0-361.6 163.2-361.6 361.6v108.8c0 19.2 12.8 32 32 32h800c19.2 0 32-12.8 32-32v-108.8c0-201.6-163.2-361.6-361.6-361.6zM153.6 604.8v-76.8c0-163.2 134.4-297.6 297.6-297.6h140.8c163.2 0 297.6 134.4 297.6 297.6v76.8h-736zM470.4 262.4c-153.6 0-281.6 108.8-281.6 240v44.8c0 9.6 6.4 16 16 16h89.6c9.6 0 16-6.4 16-16s-6.4-16-16-16h-73.6v-28.8c0-115.2 112-208 249.6-208 9.6 0 16-6.4 16-16s-6.4-16-16-16zM550.4 128v-128h-70.4v128h70.4zM614.4 192h-198.4v-256h198.4v256z" />
<glyph unicode="&#xe905;" glyph-name="deportes" d="M403.2 278.4l-70.4 211.2 179.2 128 179.2-128-70.4-211.2zM988.8 393.6c0 3.2 0 9.6 0 12.8 0 12.8 3.2 28.8 3.2 41.6 0 16 0 35.2-3.2 51.2 0 3.2 0 3.2 0 6.4-3.2 16-3.2 28.8-6.4 44.8 0 0 0 3.2 0 3.2-41.6 185.6-195.2 332.8-387.2 368-9.6 0-19.2 3.2-25.6 3.2s-9.6 0-16 0c-16 3.2-28.8 3.2-41.6 3.2s-25.6 0-41.6-3.2c-6.4 0-12.8 0-16-3.2-6.4 0-9.6-3.2-16-3.2-16-3.2-28.8-6.4-44.8-9.6 0 0 0 0 0 0v0c-118.4-25.6-217.6-99.2-281.6-198.4-6.4-6.4-12.8-16-19.2-25.6-3.2-6.4-6.4-12.8-9.6-19.2s-3.2-9.6-6.4-16c-12.8-25.6-22.4-51.2-28.8-76.8 0-3.2 0-3.2 0-6.4-9.6-38.4-16-76.8-16-118.4 0-121.6 44.8-233.6 121.6-316.8 0-3.2 3.2-6.4 6.4-9.6 9.6-9.6 19.2-19.2 28.8-28.8 3.2-3.2 6.4-6.4 9.6-9.6 6.4-6.4 12.8-9.6 16-12.8s9.6-6.4 12.8-9.6c6.4-6.4 12.8-9.6 19.2-12.8 9.6-6.4 16-9.6 25.6-16 6.4-3.2 12.8-6.4 19.2-9.6s12.8-6.4 19.2-9.6c6.4-3.2 12.8-6.4 19.2-9.6 0 0 0 0 0 0v0c57.6-22.4 118.4-35.2 182.4-35.2 246.4 0 451.2 185.6 476.8 425.6v0c0 0 0 0 0 0zM371.2 54.4l-38.4 128 51.2 64c6.4 6.4 3.2 16-3.2 22.4s-16 3.2-22.4-3.2l-48-64-140.8 3.2c-48 70.4-80 153.6-80 243.2 0 6.4 0 9.6 0 16l96 73.6 102.4-44.8c3.2 0 3.2 0 6.4 0 6.4 0 12.8 3.2 12.8 9.6 3.2 6.4 0 16-6.4 19.2l-99.2 44.8-38.4 112c51.2 76.8 124.8 134.4 211.2 163.2v-3.2l124.8-89.6v-89.6c0-9.6 6.4-16 16-16s16 6.4 16 16v92.8l121.6 89.6v3.2c89.6-32 166.4-89.6 217.6-169.6l-44.8-131.2-92.8-32c-6.4-3.2-12.8-9.6-9.6-19.2 3.2-6.4 6.4-9.6 12.8-9.6 0 0 3.2 0 3.2 0l102.4 35.2 92.8-121.6c-9.6-76.8-38.4-147.2-86.4-208l-137.6 6.4-41.6 57.6c-6.4 6.4-12.8 9.6-22.4 3.2-6.4-6.4-9.6-12.8-3.2-22.4l38.4-51.2-51.2-140.8c-35.2-9.6-73.6-16-112-16-57.6 3.2-102.4 12.8-147.2 28.8zM224 617.6c-3.2 0-3.2 0-6.4 3.2-6.4 3.2-9.6 12.8-3.2 19.2 38.4 64 99.2 118.4 169.6 147.2 6.4 3.2 16 0 16-6.4s0-16-6.4-16c-64-25.6-121.6-73.6-156.8-134.4-3.2-12.8-9.6-12.8-12.8-12.8zM172.8 339.2c-6.4 0-12.8 3.2-12.8 9.6-6.4 22.4-9.6 48-9.6 73.6 0 6.4 6.4 12.8 12.8 12.8 9.6 0 12.8-6.4 12.8-12.8 0-22.4 3.2-44.8 9.6-67.2 0-6.4-3.2-16-12.8-16 0 0 0 0 0 0z" />
<glyph unicode="&#xe906;" glyph-name="electronica" d="M819.2 3.2c0 0 0 0 0 0h-614.4c-12.8 0-25.6 6.4-28.8 19.2s-3.2 25.6 6.4 35.2l153.6 153.6c6.4 6.4 12.8 9.6 22.4 9.6h307.2c9.6 0 16-3.2 22.4-9.6l150.4-150.4c9.6-6.4 12.8-16 12.8-25.6 0-16-12.8-32-32-32zM281.6 67.2h460.8l-89.6 89.6h-281.6l-89.6-89.6zM969.6 150.4h-915.2c-19.2 0-35.2 16-35.2 35.2v668.8c0 19.2 16 35.2 35.2 35.2h912c19.2 0 35.2-16 35.2-35.2v-668.8c3.2-19.2-12.8-35.2-32-35.2zM92.8 220.8h841.6v598.4h-841.6v-598.4zM256 272h-108.8c-9.6 0-16 6.4-16 16v416c0 9.6 6.4 16 16 16s16-6.4 16-16v-400h92.8c9.6 0 16-6.4 16-16s-6.4-16-16-16zM876.8 272h-108.8c-9.6 0-16 6.4-16 16s6.4 16 16 16h92.8v92.8c0 9.6 6.4 16 16 16s16-6.4 16-16v-108.8c0-9.6-6.4-16-16-16z" />
<glyph unicode="&#xe907;" glyph-name="herramientas" d="M496 553.6c12.8-22.4 25.6-44.8 48-64 22.4-22.4 44.8-38.4 70.4-48l-412.8-412.8c-16-16-35.2-22.4-57.6-22.4s-41.6 9.6-57.6 22.4c-32 32-32 83.2 0 115.2l409.6 409.6zM524.8 675.2l-483.2-486.4c-57.6-57.6-57.6-150.4 0-204.8v0c28.8-28.8 67.2-41.6 102.4-41.6s73.6 12.8 102.4 41.6l489.6 486.4c0 0-89.6 3.2-147.2 60.8-60.8 60.8-64 144-64 144v0zM470.4 400c-3.2 0-9.6 0-12.8 3.2-6.4 6.4-6.4 16 0 22.4l32 32c6.4 6.4 16 6.4 22.4 0s6.4-16 0-22.4l-32-32c0 0-3.2-3.2-9.6-3.2zM137.6 12.8c-3.2 0-9.6 0-12.8 3.2-25.6 25.6 0 73.6 35.2 112l243.2 243.2c6.4 6.4 16 6.4 22.4 0s6.4-16 0-22.4l-243.2-243.2c-32-32-38.4-60.8-35.2-67.2 6.4-6.4 6.4-16 0-22.4 0 0-6.4-3.2-9.6-3.2zM736 896l-96-96 6.4-35.2 25.6-99.2 9.6-38.4 140.8-35.2 35.2-9.6 96 96c0-54.4-22.4-105.6-60.8-144-41.6-41.6-92.8-60.8-150.4-60.8s-108.8 22.4-150.4 60.8c-83.2 83.2-83.2 217.6 0 300.8 35.2 38.4 89.6 60.8 144 60.8zM739.2 960c-70.4 0-140.8-25.6-195.2-80-108.8-108.8-108.8-284.8 0-390.4 54.4-54.4 124.8-80 195.2-80s140.8 25.6 195.2 80c86.4 86.4 102.4 214.4 54.4 316.8l-150.4-150.4-102.4 25.6-22.4 99.2 150.4 150.4c-38.4 19.2-83.2 28.8-124.8 28.8v0z" />
<glyph unicode="&#xe908;" glyph-name="hogar" d="M512 873.6l384-358.4v-508.8h-774.4v502.4l390.4 364.8zM512 966.4l-512-476.8h54.4v-553.6h912v553.6h57.6l-512 476.8zM326.4 198.4h-112v185.6h188.8v-108.8h-32v76.8h-124.8v-121.6h80zM816-51.2h-259.2l3.2 435.2h275.2v-121.6h-32v89.6h-211.2l-3.2-371.2h227.2zM540.8 492.8h-435.2c-9.6 0-16 6.4-16 16s6.4 16 16 16h432c9.6 0 16-6.4 16-16s-3.2-16-12.8-16zM742.4 492.8h-144c-9.6 0-16 6.4-16 16s6.4 16 16 16h144c9.6 0 16-6.4 16-16s-6.4-16-16-16z" />
<glyph unicode="&#xe909;" glyph-name="motor" d="M281.6 448h-38.4c-12.8 0-25.6 9.6-28.8 22.4l-9.6 32c-12.8 3.2-25.6 9.6-38.4 16l-28.8-16c-12.8-6.4-25.6-3.2-35.2 6.4l-25.6 25.6c-12.8 6.4-12.8 22.4-9.6 35.2l16 28.8c-6.4 12.8-12.8 25.6-16 38.4l-32 9.6c-9.6 3.2-19.2 16-19.2 28.8v38.4c0 12.8 9.6 25.6 22.4 28.8l32 9.6c3.2 12.8 9.6 25.6 16 38.4l-19.2 28.8c-3.2 9.6-3.2 25.6 6.4 35.2l25.6 25.6c9.6 9.6 22.4 12.8 35.2 6.4l28.8-16c16 9.6 28.8 12.8 41.6 16l9.6 32c3.2 12.8 16 22.4 28.8 22.4h38.4c12.8 0 25.6-9.6 28.8-22.4l9.6-32c12.8-3.2 25.6-9.6 38.4-16l28.8 16c12.8 6.4 25.6 3.2 35.2-6.4l25.6-25.6c9.6-9.6 12.8-22.4 6.4-35.2l-16-28.8c6.4-12.8 12.8-25.6 16-38.4l32-9.6c12.8-3.2 22.4-16 22.4-28.8v-38.4c0-12.8-9.6-25.6-22.4-28.8l-32-9.6c-3.2-12.8-9.6-25.6-16-38.4l16-28.8c6.4-12.8 3.2-25.6-6.4-35.2l-25.6-25.6c-9.6-9.6-22.4-12.8-35.2-6.4l-28.8 16c-12.8-6.4-25.6-12.8-38.4-16l-9.6-32c-3.2-16-16-22.4-28.8-22.4zM166.4 579.2c6.4 0 12.8-3.2 16-6.4 16-9.6 32-16 48-19.2 12.8 0 22.4-9.6 25.6-19.2l6.4-16 6.4 16c3.2 9.6 12.8 19.2 22.4 19.2 19.2 3.2 35.2 9.6 48 19.2 9.6 6.4 19.2 6.4 32 3.2l16-6.4-6.4 16c-6.4 9.6-3.2 22.4 3.2 32 9.6 16 16 32 19.2 48 3.2 9.6 9.6 19.2 19.2 22.4l16 6.4-16 6.4c-9.6 3.2-19.2 12.8-19.2 22.4-3.2 19.2-9.6 35.2-19.2 48-6.4 9.6-6.4 22.4-3.2 32l6.4 16-16-6.4c-9.6-6.4-22.4-3.2-32 3.2-16 9.6-32 16-48 19.2-12.8 0-19.2 6.4-22.4 16l-6.4 19.2-6.4-19.2c-3.2-9.6-12.8-16-22.4-19.2-19.2-3.2-35.2-9.6-51.2-19.2-9.6-6.4-19.2-6.4-32-3.2l-12.8 6.4 6.4-16c6.4-9.6 3.2-22.4-3.2-32-6.4-12.8-12.8-28.8-19.2-44.8 0-12.8-9.6-22.4-19.2-25.6l-16-3.2 16-6.4c9.6-3.2 19.2-12.8 19.2-22.4 3.2-19.2 9.6-35.2 19.2-48 6.4-9.6 6.4-22.4 3.2-32l-6.4-16 16 6.4c3.2 3.2 9.6 3.2 12.8 3.2zM566.4-41.6c-3.2 0-6.4 0-12.8 3.2l-54.4 22.4c-12.8 6.4-19.2 16-19.2 28.8l3.2 57.6c-19.2 16-38.4 32-54.4 54.4l-57.6-6.4c-12.8 0-25.6 6.4-32 19.2l-19.2 51.2c-6.4 12.8-3.2 25.6 6.4 35.2l41.6 38.4c-3.2 25.6-3.2 51.2 0 76.8l-44.8 38.4c-9.6 9.6-12.8 22.4-9.6 35.2l22.4 54.4c6.4 12.8 16 19.2 28.8 19.2l57.6-3.2c16 19.2 32 38.4 54.4 54.4l-6.4 57.6c0 12.8 6.4 25.6 19.2 32l54.4 19.2c12.8 6.4 25.6 3.2 35.2-6.4l38.4-41.6c25.6 3.2 51.2 3.2 76.8 0l38.4 44.8c9.6 9.6 22.4 12.8 35.2 9.6l54.4-22.4c12.8-6.4 19.2-16 19.2-28.8l-3.2-57.6c19.2-16 38.4-32 54.4-54.4l57.6 6.4c12.8 0 25.6-6.4 32-19.2l22.4-54.4c6.4-12.8 3.2-25.6-6.4-35.2l-41.6-38.4c3.2-25.6 3.2-51.2 0-76.8l44.8-38.4c9.6-9.6 12.8-22.4 9.6-35.2l-22.4-54.4c-6.4-12.8-16-19.2-28.8-19.2l-64 3.2c-16-19.2-32-38.4-54.4-54.4l6.4-57.6c0-12.8-6.4-25.6-19.2-32l-54.4-22.4c-12.8-6.4-25.6-3.2-35.2 6.4l-35.2 44.8c-25.6-3.2-51.2-3.2-76.8 0l-38.4-44.8c-6.4-6.4-12.8-9.6-22.4-9.6zM544 28.8l12.8-6.4 35.2 41.6c6.4 9.6 19.2 12.8 28.8 9.6 28.8-6.4 60.8-6.4 89.6 0 9.6 3.2 22.4 0 28.8-9.6l35.2-38.4 12.8 6.4-3.2 51.2c0 9.6 3.2 22.4 12.8 28.8 25.6 16 44.8 38.4 60.8 64 6.4 9.6 16 12.8 28.8 12.8l54.4-3.2 6.4 12.8-41.6 35.2c-9.6 6.4-12.8 19.2-9.6 28.8 6.4 28.8 6.4 57.6 0 89.6-3.2 9.6 0 22.4 9.6 28.8l38.4 35.2-6.4 12.8-51.2-3.2c-9.6 0-22.4 3.2-28.8 12.8-16 25.6-38.4 44.8-64 60.8-9.6 6.4-16 16-12.8 28.8l3.2 54.4-12.8 6.4-41.6-44.8c-6.4-9.6-19.2-12.8-28.8-9.6-28.8 6.4-60.8 6.4-89.6 0-9.6-3.2-22.4 0-28.8 9.6l-35.2 38.4-12.8-6.4 3.2-51.2c0-9.6-3.2-22.4-12.8-28.8-25.6-16-44.8-38.4-60.8-64-6.4-9.6-16-12.8-28.8-12.8l-54.4 3.2-6.4-12.8 41.6-35.2c9.6-6.4 12.8-19.2 9.6-28.8-6.4-28.8-6.4-57.6 0-89.6 3.2-9.6 0-22.4-9.6-28.8l-32-35.2 6.4-12.8 51.2 3.2c9.6 0 22.4-3.2 28.8-12.8 16-25.6 38.4-44.8 64-60.8 9.6-6.4 12.8-16 12.8-28.8l-3.2-51.2zM262.4 630.4c-35.2 0-64 28.8-64 64s28.8 64 64 64c35.2 0 64-28.8 64-64s-28.8-64-64-64zM262.4 726.4c-19.2 0-32-16-32-32s16-32 32-32c19.2 0 32 16 32 32s-16 32-32 32zM656 144c-86.4 0-156.8 70.4-156.8 156.8s70.4 156.8 156.8 156.8 156.8-70.4 156.8-156.8-70.4-156.8-156.8-156.8zM656 425.6c-70.4 0-124.8-57.6-124.8-124.8s57.6-124.8 124.8-124.8 124.8 57.6 124.8 124.8-54.4 124.8-124.8 124.8z" />
<glyph unicode="&#xe90a;" glyph-name="oficina" d="M492.8 489.6c-6.4 0-12.8 3.2-19.2 9.6-9.6 9.6-9.6 28.8 0 38.4l124.8 124.8c9.6 9.6 25.6 9.6 38.4-3.2 9.6-9.6 9.6-28.8 0-38.4l-124.8-121.6c-3.2-6.4-12.8-9.6-19.2-9.6zM275.2-16c-57.6 0-118.4 22.4-160 64-38.4 38.4-60.8 89.6-60.8 147.2s22.4 105.6 60.8 147.2l585.6 585.6c64 64 163.2 64 227.2 3.2 60.8-60.8 60.8-163.2 0-224l-582.4-572.8c-41.6-41.6-112-41.6-153.6 0s-35.2 105.6 9.6 150.4l198.4 198.4c12.8 12.8 32 12.8 44.8 0s12.8-32 0-44.8l-198.4-198.4c-16-16-28.8-44.8-9.6-64s48-19.2 67.2 0l576 572.8c38.4 38.4 38.4 99.2 0 137.6s-99.2 38.4-137.6 0l-585.6-588.8c-28.8-28.8-41.6-64-41.6-102.4s16-73.6 41.6-102.4c57.6-57.6 169.6-60.8 224-6.4l438.4 438.4c12.8 12.8 32 12.8 44.8 0s12.8-32 0-44.8l-441.6-438.4c-38.4-38.4-92.8-57.6-147.2-57.6z" />
<glyph unicode="&#xe90b;" glyph-name="quimica" d="M313.6 636.8c19.2 0 32-16 32-32s-9.6-25.6-19.2-28.8l-35.2-16v-473.6c0-48-38.4-86.4-86.4-86.4-6.4 0-12.8 0-19.2 3.2-38.4 6.4-67.2 44.8-67.2 89.6v464l-35.2 16c-9.6 6.4-19.2 16-19.2 32 0 19.2 16 32 32 32h217.6zM313.6 700.8h-217.6c-54.4 0-96-44.8-96-96 0-38.4 22.4-73.6 54.4-86.4v-425.6c0-70.4 48-137.6 118.4-150.4 12.8-6.4 22.4-6.4 32-6.4 83.2 0 150.4 67.2 150.4 150.4v428.8c32 16 54.4 48 54.4 86.4v0c0 54.4-44.8 99.2-96 99.2v0zM739.2 761.6v-361.6l9.6-16 204.8-339.2c6.4-12.8 3.2-22.4 0-28.8s-12.8-16-32-16h-537.6c-19.2 0-28.8 12.8-32 16-3.2 6.4-6.4 16 0 28.8l208 339.2 9.6 16v361.6h169.6zM800 825.6h-294.4v-409.6l-204.8-339.2c-38.4-60.8 9.6-137.6 83.2-137.6h534.4c73.6 0 121.6 76.8 83.2 137.6l-201.6 339.2v409.6zM761.6 896c19.2 0 32-16 32-32s-16-32-32-32h-217.6c-19.2 0-32 16-32 32s16 32 32 32h217.6zM761.6 960h-217.6c-54.4 0-96-44.8-96-96s44.8-96 96-96h214.4c54.4 0 96 44.8 96 96s-41.6 96-92.8 96v0zM665.6 684.8c-9.6 0-19.2 6.4-19.2 19.2v51.2c0 9.6 6.4 19.2 19.2 19.2s19.2-6.4 19.2-19.2v-51.2c0-9.6-9.6-19.2-19.2-19.2zM742.4 22.4c-51.2 0-92.8 41.6-92.8 92.8s41.6 92.8 92.8 92.8c51.2 0 92.8-41.6 92.8-92.8s-41.6-92.8-92.8-92.8zM742.4 176c-32 0-60.8-28.8-60.8-60.8s28.8-60.8 60.8-60.8c32 0 60.8 28.8 60.8 60.8s-28.8 60.8-60.8 60.8zM665.6 224c-38.4 0-67.2 28.8-67.2 67.2s28.8 67.2 67.2 67.2 67.2-28.8 67.2-67.2-28.8-67.2-67.2-67.2zM665.6 326.4c-19.2 0-35.2-16-35.2-35.2s16-35.2 35.2-35.2 35.2 16 35.2 35.2-16 35.2-35.2 35.2zM307.2 531.2h-102.4c-9.6 0-19.2 6.4-19.2 19.2s6.4 19.2 19.2 19.2h102.4c9.6 0 19.2-6.4 19.2-19.2s-9.6-19.2-19.2-19.2z" />
<glyph unicode="&#xe90c;" glyph-name="ropa" d="M809.6 844.8l128-160-83.2-80-80 99.2v-704h-524.8v704l-83.2-102.4-80 83.2 128 160h144c25.6-60.8 83.2-102.4 153.6-102.4s128 41.6 153.6 102.4h144zM838.4 908.8h-224c0-57.6-44.8-102.4-102.4-102.4s-102.4 44.8-102.4 102.4h-224l-185.6-230.4 172.8-169.6 12.8 16v-588.8h652.8v588.8l12.8-16 172.8 169.6-185.6 230.4zM384 688c-3.2 0-6.4 0-9.6 3.2-19.2 16-32 35.2-44.8 54.4-3.2 6.4-3.2 16 6.4 22.4 6.4 3.2 16 3.2 22.4-6.4 9.6-19.2 22.4-32 38.4-48 6.4-6.4 6.4-16 0-22.4-6.4 0-9.6-3.2-12.8-3.2zM518.4 636.8c-22.4 0-41.6 3.2-60.8 9.6-9.6 3.2-12.8 12.8-9.6 19.2s12.8 12.8 19.2 9.6c16-6.4 35.2-6.4 54.4-6.4 86.4 0 160 57.6 182.4 140.8 3.2 9.6 9.6 12.8 19.2 12.8 9.6-3.2 12.8-9.6 12.8-19.2-28.8-99.2-115.2-166.4-217.6-166.4z" />
</font>
</defs>
</svg>
